<?xml version="1.0" encoding="UTF-8"?>
<!--Generator: Apple Native CoreSVG 232.5-->
<!DOCTYPE svg
PUBLIC "-//W3C//DTD SVG 1.1//EN"
       "http://www.w3.org/Graphics/SVG/1.1/DTD/svg11.dtd">
<svg version="1.1" xmlns="http://www.w3.org/2000/svg" xmlns:xlink="http://www.w3.org/1999/xlink" width="3300" height="2200">
 <!--glyph: "", point size: 100.0, font version: "19.2d2e1", template writer version: "128"-->
 <style>.monochrome-0 {-sfsymbols-motion-group:1;-sfsymbols-indices:0}
.monochrome-1 {opacity:0.0;-sfsymbols-clear-behind:true;-sfsymbols-motion-group:0;-sfsymbols-always-pulses:true}

.multicolor-0:tintColor {-sfsymbols-motion-group:1;-sfsymbols-indices:0}
.multicolor-1:white {-sfsymbols-motion-group:0;-sfsymbols-always-pulses:true}

.hierarchical-0:tertiary {-sfsymbols-motion-group:1;-sfsymbols-indices:0}
.hierarchical-1:primary {-sfsymbols-motion-group:0}

.shapeGroupLayer-0 {-sfsymbols-fill-action:draw;-sfsymbols-indices:1 2 3 4 5 6 7}
.shapeGroupLayer-1 {-sfsymbols-fill-action:erase;-sfsymbols-indices:8}
.shapeGroupLayer-2 {-sfsymbols-fill-action:draw;-sfsymbols-indices:9 10 11 12 13 14 15 16}

.SFSymbolsPreviewWireframe {fill:none;opacity:1.0;stroke:black;stroke-width:0.5}
</style>
 <g id="Notes">
  <rect height="2200" id="artboard" style="fill:white;opacity:1" width="3300" x="0" y="0"/>
  <line style="fill:none;stroke:black;opacity:1;stroke-width:0.5;" x1="263" x2="3036" y1="292" y2="292"/>
  <text style="stroke:none;fill:black;font-family:sans-serif;font-size:13;font-weight:bold;" transform="matrix(1 0 0 1 263 322)">Weight/Scale Variations</text>
  <text style="stroke:none;fill:black;font-family:sans-serif;font-size:13;text-anchor:middle;" transform="matrix(1 0 0 1 559.711 322)">Ultralight</text>
  <text style="stroke:none;fill:black;font-family:sans-serif;font-size:13;text-anchor:middle;" transform="matrix(1 0 0 1 856.422 322)">Thin</text>
  <text style="stroke:none;fill:black;font-family:sans-serif;font-size:13;text-anchor:middle;" transform="matrix(1 0 0 1 1153.13 322)">Light</text>
  <text style="stroke:none;fill:black;font-family:sans-serif;font-size:13;text-anchor:middle;" transform="matrix(1 0 0 1 1449.84 322)">Regular</text>
  <text style="stroke:none;fill:black;font-family:sans-serif;font-size:13;text-anchor:middle;" transform="matrix(1 0 0 1 1746.56 322)">Medium</text>
  <text style="stroke:none;fill:black;font-family:sans-serif;font-size:13;text-anchor:middle;" transform="matrix(1 0 0 1 2043.27 322)">Semibold</text>
  <text style="stroke:none;fill:black;font-family:sans-serif;font-size:13;text-anchor:middle;" transform="matrix(1 0 0 1 2339.98 322)">Bold</text>
  <text style="stroke:none;fill:black;font-family:sans-serif;font-size:13;text-anchor:middle;" transform="matrix(1 0 0 1 2636.69 322)">Heavy</text>
  <text style="stroke:none;fill:black;font-family:sans-serif;font-size:13;text-anchor:middle;" transform="matrix(1 0 0 1 2933.4 322)">Black</text>
  <line style="fill:none;stroke:black;opacity:1;stroke-width:0.5;" x1="263" x2="3036" y1="1903" y2="1903"/>
  <g transform="matrix(0.2 0 0 0.2 263 1933)">
   <path d="m46.2402 4.15039c21.5332 0 39.4531-17.8711 39.4531-39.4043s-17.9688-39.4043-39.502-39.4043c-21.4844 0-39.3555 17.8711-39.3555 39.4043s17.9199 39.4043 39.4043 39.4043Zm0-7.42188c-17.7246 0-31.8848-14.209-31.8848-31.9824s14.1113-31.9824 31.8359-31.9824c17.7734 0 32.0312 14.209 32.0312 31.9824s-14.209 31.9824-31.9824 31.9824Zm-17.9688-31.9824c0 2.14844 1.51367 3.61328 3.75977 3.61328h10.498v10.5957c0 2.19727 1.46484 3.71094 3.61328 3.71094 2.24609 0 3.71094-1.51367 3.71094-3.71094v-10.5957h10.5957c2.19727 0 3.71094-1.46484 3.71094-3.61328 0-2.19727-1.51367-3.71094-3.71094-3.71094h-10.5957v-10.5469c0-2.24609-1.46484-3.75977-3.71094-3.75977-2.14844 0-3.61328 1.51367-3.61328 3.75977v10.5469h-10.498c-2.24609 0-3.75977 1.51367-3.75977 3.71094Z"/>
  </g>
  <g transform="matrix(0.2 0 0 0.2 281.506 1933)">
   <path d="m58.5449 14.5508c27.2461 0 49.8047-22.6074 49.8047-49.8047 0-27.2461-22.6074-49.8047-49.8535-49.8047-27.1973 0-49.7559 22.5586-49.7559 49.8047 0 27.1973 22.6074 49.8047 49.8047 49.8047Zm0-8.30078c-23.0469 0-41.4551-18.457-41.4551-41.5039s18.3594-41.5039 41.4062-41.5039 41.5527 18.457 41.5527 41.5039-18.457 41.5039-41.5039 41.5039Zm-22.6562-41.5039c0 2.39258 1.66016 4.00391 4.15039 4.00391h14.3555v14.4043c0 2.44141 1.66016 4.15039 4.05273 4.15039 2.44141 0 4.15039-1.66016 4.15039-4.15039v-14.4043h14.4043c2.44141 0 4.15039-1.61133 4.15039-4.00391 0-2.44141-1.70898-4.15039-4.15039-4.15039h-14.4043v-14.3555c0-2.49023-1.70898-4.19922-4.15039-4.19922-2.39258 0-4.05273 1.70898-4.05273 4.19922v14.3555h-14.3555c-2.49023 0-4.15039 1.70898-4.15039 4.15039Z"/>
  </g>
  <g transform="matrix(0.2 0 0 0.2 304.924 1933)">
   <path d="m74.8535 28.3203c34.8145 0 63.623-28.8086 63.623-63.5742 0-34.8145-28.8574-63.623-63.6719-63.623-34.7656 0-63.5254 28.8086-63.5254 63.623 0 34.7656 28.8086 63.5742 63.5742 63.5742Zm0-9.08203c-30.1758 0-54.4434-24.3164-54.4434-54.4922 0-30.2246 24.2188-54.4922 54.3945-54.4922 30.2246 0 54.541 24.2676 54.541 54.4922 0 30.1758-24.2676 54.4922-54.4922 54.4922Zm-28.8574-54.4922c0 2.58789 1.85547 4.39453 4.58984 4.39453h19.7266v19.7754c0 2.68555 1.85547 4.58984 4.44336 4.58984 2.68555 0 4.54102-1.85547 4.54102-4.58984v-19.7754h19.7754c2.68555 0 4.58984-1.80664 4.58984-4.39453 0-2.73438-1.85547-4.58984-4.58984-4.58984h-19.7754v-19.7266c0-2.73438-1.85547-4.63867-4.54102-4.63867-2.58789 0-4.44336 1.9043-4.44336 4.63867v19.7266h-19.7266c-2.73438 0-4.58984 1.85547-4.58984 4.58984Z"/>
  </g>
  <text style="stroke:none;fill:black;font-family:sans-serif;font-size:13;font-weight:bold;" transform="matrix(1 0 0 1 263 1953)">Design Variations</text>
  <text style="stroke:none;fill:black;font-family:sans-serif;font-size:13;" transform="matrix(1 0 0 1 263 1971)">Symbols are supported in up to nine weights and three scales.</text>
  <text style="stroke:none;fill:black;font-family:sans-serif;font-size:13;" transform="matrix(1 0 0 1 263 1989)">For optimal layout with text and other symbols, vertically align</text>
  <text style="stroke:none;fill:black;font-family:sans-serif;font-size:13;" transform="matrix(1 0 0 1 263 2007)">symbols with the adjacent text.</text>
  <line style="fill:none;stroke:#00AEEF;stroke-width:0.5;opacity:1.0;" x1="776" x2="776" y1="1919" y2="1933"/>
  <g transform="matrix(0.2 0 0 0.2 776 1933)">
   <path d="m16.5527 0.78125c2.58789 0 3.85742-0.976562 4.78516-3.71094l6.29883-17.2363h28.8086l6.29883 17.2363c0.927734 2.73438 2.19727 3.71094 4.73633 3.71094 2.58789 0 4.24805-1.5625 4.24805-4.00391 0-0.830078-0.146484-1.61133-0.537109-2.63672l-22.9004-60.9863c-1.12305-2.97852-3.125-4.49219-6.25-4.49219-3.02734 0-5.07812 1.46484-6.15234 4.44336l-22.9004 61.084c-0.390625 1.02539-0.537109 1.80664-0.537109 2.63672 0 2.44141 1.5625 3.95508 4.10156 3.95508Zm13.4766-28.3691 11.8652-32.8613h0.244141l11.8652 32.8613Z"/>
  </g>
  <line style="fill:none;stroke:#00AEEF;stroke-width:0.5;opacity:1.0;" x1="792.836" x2="792.836" y1="1919" y2="1933"/>
  <text style="stroke:none;fill:black;font-family:sans-serif;font-size:13;font-weight:bold;" transform="matrix(1 0 0 1 776 1953)">Margins</text>
  <text style="stroke:none;fill:black;font-family:sans-serif;font-size:13;" transform="matrix(1 0 0 1 776 1971)">Leading and trailing margins on the left and right side of each symbol</text>
  <text style="stroke:none;fill:black;font-family:sans-serif;font-size:13;" transform="matrix(1 0 0 1 776 1989)">can be adjusted by modifying the x-location of the margin guidelines.</text>
  <text style="stroke:none;fill:black;font-family:sans-serif;font-size:13;" transform="matrix(1 0 0 1 776 2007)">Modifications are automatically applied proportionally to all</text>
  <text style="stroke:none;fill:black;font-family:sans-serif;font-size:13;" transform="matrix(1 0 0 1 776 2025)">scales and weights.</text>
  <g transform="matrix(0.2 0 0 0.2 1289 1933)">
   <path d="m14.209 9.32617 8.49609 8.54492c4.29688 4.3457 9.22852 4.05273 13.8672-1.07422l53.4668-58.9355-4.83398-4.88281-53.0762 58.3984c-1.75781 2.00195-3.41797 2.49023-5.76172 0.146484l-5.85938-5.81055c-2.34375-2.29492-1.80664-4.00391 0.195312-5.81055l57.373-54.0039-4.88281-4.83398-57.959 54.4434c-4.93164 4.58984-5.32227 9.47266-1.02539 13.8184Zm32.0801-90.9668c-2.09961 2.05078-2.24609 4.93164-1.07422 6.88477 1.17188 1.80664 3.4668 2.97852 6.68945 2.14844 7.32422-1.70898 14.9414-2.00195 22.0703 2.68555l-2.92969 7.27539c-1.70898 4.15039-0.830078 7.08008 1.85547 9.81445l11.4746 11.5723c2.44141 2.44141 4.49219 2.53906 7.32422 2.05078l5.32227-0.976562 3.32031 3.36914-0.195312 2.7832c-0.195312 2.49023 0.439453 4.39453 2.88086 6.78711l3.80859 3.71094c2.39258 2.39258 5.46875 2.53906 7.8125 0.195312l14.5508-14.5996c2.34375-2.34375 2.24609-5.32227-0.146484-7.71484l-3.85742-3.80859c-2.39258-2.39258-4.24805-3.17383-6.64062-2.97852l-2.88086 0.244141-3.22266-3.17383 1.2207-5.61523c0.634766-2.83203-0.146484-5.0293-3.07617-7.95898l-10.9863-10.9375c-16.6992-16.6016-38.8672-16.2109-53.3203-1.75781Zm7.4707 1.85547c12.1582-8.88672 28.6133-7.37305 39.7461 3.75977l12.1582 12.0605c1.17188 1.17188 1.36719 2.09961 1.02539 3.80859l-1.61133 7.42188 7.51953 7.42188 4.93164-0.292969c1.26953-0.0488281 1.66016 0.0488281 2.63672 1.02539l2.88086 2.88086-12.207 12.207-2.88086-2.88086c-0.976562-0.976562-1.12305-1.36719-1.07422-2.68555l0.341797-4.88281-7.4707-7.42188-7.61719 1.26953c-1.61133 0.341797-2.34375 0.195312-3.56445-0.976562l-10.0098-10.0098c-1.26953-1.17188-1.41602-2.00195-0.634766-3.85742l4.39453-10.4492c-7.8125-7.27539-17.9688-10.4004-28.125-7.42188-0.78125 0.195312-1.07422-0.439453-0.439453-0.976562Z"/>
  </g>
  <text style="stroke:none;fill:black;font-family:sans-serif;font-size:13;font-weight:bold;" transform="matrix(1 0 0 1 1289 1953)">Exporting</text>
  <text style="stroke:none;fill:black;font-family:sans-serif;font-size:13;" transform="matrix(1 0 0 1 1289 1971)">Symbols should be outlined when exporting to ensure the</text>
  <text style="stroke:none;fill:black;font-family:sans-serif;font-size:13;" transform="matrix(1 0 0 1 1289 1989)">design is preserved when submitting to Xcode.</text>
  <text id="template-version" style="stroke:none;fill:black;font-family:sans-serif;font-size:13;text-anchor:end;" transform="matrix(1 0 0 1 3036 1933)">Template v.5.0</text>
  <text style="stroke:none;fill:black;font-family:sans-serif;font-size:13;text-anchor:end;" transform="matrix(1 0 0 1 3036 1951)">Requires Xcode 15 or greater</text>
  <text id="descriptive-name" style="stroke:none;fill:black;font-family:sans-serif;font-size:13;text-anchor:end;" transform="matrix(1 0 0 1 3036 1969)">Generated from rectangle.fill</text>
  <text style="stroke:none;fill:black;font-family:sans-serif;font-size:13;text-anchor:end;" transform="matrix(1 0 0 1 3036 1987)">Typeset at 100.0 points</text>
  <text style="stroke:none;fill:black;font-family:sans-serif;font-size:13;" transform="matrix(1 0 0 1 263 726)">Small</text>
  <text style="stroke:none;fill:black;font-family:sans-serif;font-size:13;" transform="matrix(1 0 0 1 263 1156)">Medium</text>
  <text style="stroke:none;fill:black;font-family:sans-serif;font-size:13;" transform="matrix(1 0 0 1 263 1586)">Large</text>
 </g>
 <g id="Guides">
  <g id="H-reference" style="fill:#27AAE1;stroke:none;" transform="matrix(1 0 0 1 339 696)">
   <path d="M0.993654 0L3.63775 0L29.3281-67.1323L30.0303-67.1323L30.0303-70.459L28.1226-70.459ZM11.6885-24.4799L46.9815-24.4799L46.2315-26.7285L12.4385-26.7285ZM55.1196 0L57.7637 0L30.6382-70.459L29.4326-70.459L29.4326-67.1323Z"/>
  </g>
  <line id="Baseline-S" style="fill:none;stroke:#27AAE1;opacity:1;stroke-width:0.5;" x1="263" x2="3036" y1="696" y2="696"/>
  <line id="Capline-S" style="fill:none;stroke:#27AAE1;opacity:1;stroke-width:0.5;" x1="263" x2="3036" y1="625.541" y2="625.541"/>
  <g id="H-reference" style="fill:#27AAE1;stroke:none;" transform="matrix(1 0 0 1 339 1126)">
   <path d="M0.993654 0L3.63775 0L29.3281-67.1323L30.0303-67.1323L30.0303-70.459L28.1226-70.459ZM11.6885-24.4799L46.9815-24.4799L46.2315-26.7285L12.4385-26.7285ZM55.1196 0L57.7637 0L30.6382-70.459L29.4326-70.459L29.4326-67.1323Z"/>
  </g>
  <line id="Baseline-M" style="fill:none;stroke:#27AAE1;opacity:1;stroke-width:0.5;" x1="263" x2="3036" y1="1126" y2="1126"/>
  <line id="Capline-M" style="fill:none;stroke:#27AAE1;opacity:1;stroke-width:0.5;" x1="263" x2="3036" y1="1055.54" y2="1055.54"/>
  <g id="H-reference" style="fill:#27AAE1;stroke:none;" transform="matrix(1 0 0 1 339 1556)">
   <path d="M0.993654 0L3.63775 0L29.3281-67.1323L30.0303-67.1323L30.0303-70.459L28.1226-70.459ZM11.6885-24.4799L46.9815-24.4799L46.2315-26.7285L12.4385-26.7285ZM55.1196 0L57.7637 0L30.6382-70.459L29.4326-70.459L29.4326-67.1323Z"/>
  </g>
  <line id="Baseline-L" style="fill:none;stroke:#27AAE1;opacity:1;stroke-width:0.5;" x1="263" x2="3036" y1="1556" y2="1556"/>
  <line id="Capline-L" style="fill:none;stroke:#27AAE1;opacity:1;stroke-width:0.5;" x1="263" x2="3036" y1="1485.54" y2="1485.54"/>
  <line id="left-margin-Ultralight-S" style="fill:none;stroke:#00AEEF;stroke-width:0.5;opacity:1.0;" x1="505.702" x2="505.702" y1="600.785" y2="720.121"/>
  <line id="right-margin-Ultralight-S" style="fill:none;stroke:#00AEEF;stroke-width:0.5;opacity:1.0;" x1="613.72" x2="613.72" y1="600.785" y2="720.121"/>
  <line id="left-margin-Regular-S" style="fill:none;stroke:#00AEEF;stroke-width:0.5;opacity:1.0;" x1="1394.79" x2="1394.79" y1="600.785" y2="720.121"/>
  <line id="right-margin-Regular-S" style="fill:none;stroke:#00AEEF;stroke-width:0.5;opacity:1.0;" x1="1504.9" x2="1504.9" y1="600.785" y2="720.121"/>
  <line id="left-margin-Black-S" style="fill:none;stroke:#00AEEF;stroke-width:0.5;opacity:1.0;" x1="2877.35" x2="2877.35" y1="600.785" y2="720.121"/>
  <line id="right-margin-Black-S" style="fill:none;stroke:#00AEEF;stroke-width:0.5;opacity:1.0;" x1="2989.45" x2="2989.45" y1="600.785" y2="720.121"/>
 </g>
 <g id="Symbols">
  <g id="Black-S" transform="matrix(1 0 0 1 2877.35 696)">
   <path class="SFSymbolsPreviewWireframe" d="M25 2.92969L87.1094 2.92969C96.6797 2.92969 102.344-2.73438 102.344-12.3047L102.344-58.1055C102.344-67.6758 96.6797-73.3398 87.1094-73.3398L25-73.3398C15.4297-73.3398 9.76562-67.6758 9.76562-58.1055L9.76562-12.3047C9.76562-2.73438 15.4297 2.92969 25 2.92969ZM66.8382-13.2174L76.2425-13.2174C80.6004-13.2174 83.0265-15.7528 83.0265-20.2708L83.0265-40.0481C83.0265-44.5661 80.6004-47.1015 76.2425-47.1015L66.8382-47.1015C62.4803-47.1015 60.0515-44.5661 60.0515-40.0481L60.0515-20.2708C60.0515-15.7528 62.4803-13.2174 66.8382-13.2174ZM65.6082-35.4417C65.233-35.4417 64.9798-35.6615 64.9798-36.0641L64.9798-38.8717C64.9798-39.2773 65.233-39.5275 65.6082-39.5275L68.4586-39.5275C68.8064-39.5275 69.0611-39.2773 69.0611-38.8717L69.0611-36.0641C69.0611-35.6615 68.8064-35.4417 68.4586-35.4417ZM65.6082-28.1021C65.233-28.1021 64.9798-28.3523 64.9798-28.7565L64.9798-31.5624C64.9798-31.9651 65.233-32.2168 65.6082-32.2168L68.4586-32.2168C68.8064-32.2168 69.0611-31.9651 69.0611-31.5624L69.0611-28.7565C69.0611-28.3523 68.8064-28.1021 68.4586-28.1021ZM65.6082-20.7914C65.233-20.7914 64.9798-21.0446 64.9798-21.4472L64.9798-24.2547C64.9798-24.6574 65.233-24.8771 65.6082-24.8771L68.4586-24.8771C68.8064-24.8771 69.0611-24.6574 69.0611-24.2547L69.0611-21.4472C69.0611-21.0446 68.8064-20.7914 68.4586-20.7914ZM74.6179-35.4417C74.2745-35.4417 74.0199-35.6615 74.0199-36.0641L74.0199-38.8717C74.0199-39.2773 74.2745-39.5275 74.6179-39.5275L77.4726-39.5275C77.8467-39.5275 78.1012-39.2773 78.1012-38.8717L78.1012-36.0641C78.1012-35.6615 77.8467-35.4417 77.4726-35.4417ZM74.6179-28.1021C74.2745-28.1021 74.0199-28.3523 74.0199-28.7565L74.0199-31.5624C74.0199-31.9651 74.2745-32.2168 74.6179-32.2168L77.4726-32.2168C77.8467-32.2168 78.1012-31.9651 78.1012-31.5624L78.1012-28.7565C78.1012-28.3523 77.8467-28.1021 77.4726-28.1021ZM74.6179-20.7914C74.2745-20.7914 74.0199-21.0446 74.0199-21.4472L74.0199-24.2547C74.0199-24.6574 74.2745-24.8771 74.6179-24.8771L77.4726-24.8771C77.8467-24.8771 78.1012-24.6574 78.1012-24.2547L78.1012-21.4472C78.1012-21.0446 77.8467-20.7914 77.4726-20.7914ZM35.8706-9.23197L58.2889-9.23197C64.8188-9.23197 69.0611-13.5096 69.0611-20.2708L69.0611-50.1683C69.0611-56.9295 64.8188-61.2071 58.2889-61.2071L35.8706-61.2071C29.3392-61.2071 25.0985-56.9295 25.0985-50.1683L25.0985-20.2708C25.0985-13.5096 29.3392-9.23197 35.8706-9.23197ZM29.0839-20.2708C29.0839-15.7528 31.5097-13.2174 35.8706-13.2174L58.2889-13.2174C62.6469-13.2174 65.0727-15.7528 65.0727-20.2708L65.0727-50.1683C65.0727-54.6877 62.6469-57.2218 58.2889-57.2218L35.8706-57.2218C31.5097-57.2218 29.0839-54.6877 29.0839-50.1683ZM39.2771-18.7324L39.2771-23.5543C39.2771-24.5471 39.942-25.1815 40.9348-25.1815L52.5745-25.1815C54.1457-25.1815 54.7831-24.5471 54.7831-23.5543L54.7831-18.7324ZM39.4425-44.9754L39.4425-48.3479C39.4425-48.8268 39.7445-49.1242 40.1656-49.1242L44.1897-49.1242C44.6138-49.1242 44.9142-48.8268 44.9142-48.3479L44.9142-44.9754C44.9142-44.495 44.6138-44.2265 44.1897-44.2265L40.1656-44.2265C39.7445-44.2265 39.4425-44.495 39.4425-44.9754ZM49.149-44.9754L49.149-48.3479C49.149-48.8268 49.4525-49.1242 49.8721-49.1242L53.8992-49.1242C54.3203-49.1242 54.6208-48.8268 54.6208-48.3479L54.6208-44.9754C54.6208-44.495 54.3203-44.2265 53.8992-44.2265L49.8721-44.2265C49.4525-44.2265 49.149-44.495 49.149-44.9754ZM39.4425-37.1849L39.4425-40.5618C39.4425-41.0391 39.7445-41.3367 40.1656-41.3367L44.1897-41.3367C44.6138-41.3367 44.9142-41.0391 44.9142-40.5618L44.9142-37.1849C44.9142-36.7074 44.6138-36.4099 44.1897-36.4099L40.1656-36.4099C39.7445-36.4099 39.4425-36.7074 39.4425-37.1849ZM49.149-37.1849L49.149-40.5618C49.149-41.0391 49.4525-41.3367 49.8721-41.3367L53.8992-41.3367C54.3203-41.3367 54.6208-41.0391 54.6208-40.5618L54.6208-37.1849C54.6208-36.7074 54.3203-36.4099 53.8992-36.4099L49.8721-36.4099C49.4525-36.4099 49.149-36.7074 49.149-37.1849ZM39.4425-29.3972L39.4425-32.7711C39.4425-33.2516 39.7445-33.5201 40.1656-33.5201L44.1897-33.5201C44.6138-33.5201 44.9142-33.2516 44.9142-32.7711L44.9142-29.3972C44.9142-28.9199 44.6138-28.6223 44.1897-28.6223L40.1656-28.6223C39.7445-28.6223 39.4425-28.9199 39.4425-29.3972ZM49.149-29.3972L49.149-32.7711C49.149-33.2516 49.4525-33.5201 49.8721-33.5201L53.8992-33.5201C54.3203-33.5201 54.6208-33.2516 54.6208-32.7711L54.6208-29.3972C54.6208-28.9199 54.3203-28.6223 53.8992-28.6223L49.8721-28.6223C49.4525-28.6223 49.149-28.9199 49.149-29.3972Z"/>
  </g>
  <g id="Regular-S" transform="matrix(1 0 0 1 1394.79 696)">
   <path class="SFSymbolsPreviewWireframe" d="M22.2168 0.390625L87.8906 0.390625C96.2402 0.390625 100.342-3.71094 100.342-11.9141L100.342-58.4961C100.342-66.6992 96.2402-70.8008 87.8906-70.8008L22.2168-70.8008C13.916-70.8008 9.76562-66.6992 9.76562-58.4961L9.76562-11.9141C9.76562-3.71094 13.916 0.390625 22.2168 0.390625ZM61.9204-14.0564L74.9992-14.0564C77.9943-14.0564 79.7852-15.9808 79.7852-19.174L79.7852-41.953C79.7852-45.1462 77.9943-47.0705 74.9992-47.0705L61.9204-47.0705C58.9252-47.0705 57.1328-45.1462 57.1328-41.953L57.1328-19.174C57.1328-15.9808 58.9252-14.0564 61.9204-14.0564ZM62.4941-35.895C62.0936-35.895 61.8152-36.1736 61.8152-36.6001L61.8152-39.4673C61.8152-39.8955 62.0936-40.1723 62.4941-40.1723L65.4658-40.1723C65.8697-40.1723 66.1343-39.8955 66.1343-39.4673L66.1343-36.6001C66.1343-36.1736 65.8697-35.895 65.4658-35.895ZM62.4941-28.4335C62.0936-28.4335 61.8152-28.7103 61.8152-29.1229L61.8152-32.0041C61.8152-32.4306 62.0936-32.6935 62.4941-32.6935L65.4658-32.6935C65.8697-32.6935 66.1343-32.4306 66.1343-32.0041L66.1343-29.1229C66.1343-28.7103 65.8697-28.4335 65.4658-28.4335ZM62.4941-20.9546C62.0936-20.9546 61.8152-21.2331 61.8152-21.6596L61.8152-24.5269C61.8152-24.9534 62.0936-25.232 62.4941-25.232L65.4658-25.232C65.8697-25.232 66.1343-24.9534 66.1343-24.5269L66.1343-21.6596C66.1343-21.2331 65.8697-20.9546 65.4658-20.9546ZM71.4662-35.895C71.05-35.895 70.7854-36.1736 70.7854-36.6001L70.7854-39.4673C70.7854-39.8955 71.05-40.1723 71.4662-40.1723L74.4255-40.1723C74.8401-40.1723 75.1046-39.8955 75.1046-39.4673L75.1046-36.6001C75.1046-36.1736 74.8401-35.895 74.4255-35.895ZM71.4662-28.4335C71.05-28.4335 70.7854-28.7103 70.7854-29.1229L70.7854-32.0041C70.7854-32.4306 71.05-32.6935 71.4662-32.6935L74.4255-32.6935C74.8401-32.6935 75.1046-32.4306 75.1046-32.0041L75.1046-29.1229C75.1046-28.7103 74.8401-28.4335 74.4255-28.4335ZM71.4662-20.9546C71.05-20.9546 70.7854-21.2331 70.7854-21.6596L70.7854-24.5269C70.7854-24.9534 71.05-25.232 71.4662-25.232L74.4255-25.232C74.8401-25.232 75.1046-24.9534 75.1046-24.5269L75.1046-21.6596C75.1046-21.2331 74.8401-20.9546 74.4255-20.9546ZM35.1101-10.7055L57.9957-10.7055C62.8933-10.7055 66.1343-14.1794 66.1343-19.174L66.1343-51.2778C66.1343-56.2724 62.8933-59.7462 57.9957-59.7462L35.1101-59.7462C30.2265-59.7462 26.9716-56.2724 26.9716-51.2778L26.9716-19.174C26.9716-14.1794 30.2265-10.7055 35.1101-10.7055ZM30.3225-19.174C30.3225-15.9808 32.1133-14.0564 35.1101-14.0564L57.9957-14.0564C60.9909-14.0564 62.7817-15.9808 62.7817-19.174L62.7817-51.2778C62.7817-54.457 60.9909-56.3953 57.9957-56.3953L35.1101-56.3953C32.1133-56.3953 30.3225-54.457 30.3225-51.2778ZM39.2524-18.4494L39.2524-24.1026C39.2524-25.0619 39.9034-25.6852 40.8627-25.6852L52.0024-25.6852C53.2044-25.6852 53.8293-25.0619 53.8293-24.1026L53.8293-18.4494ZM39.0179-45.2585L39.0179-48.7298C39.0179-49.2312 39.3452-49.5707 39.8223-49.5707L43.6389-49.5707C44.1177-49.5707 44.4588-49.2312 44.4588-48.7298L44.4588-45.2585C44.4588-44.7415 44.1177-44.4141 43.6389-44.4141L39.8223-44.4141C39.3452-44.4141 39.0179-44.7415 39.0179-45.2585ZM48.6245-45.2585L48.6245-48.7298C48.6245-49.2312 48.9379-49.5707 49.4289-49.5707L53.2471-49.5707C53.7243-49.5707 54.0654-49.2312 54.0654-48.7298L54.0654-45.2585C54.0654-44.7415 53.7243-44.4141 53.2471-44.4141L49.4289-44.4141C48.9379-44.4141 48.6245-44.7415 48.6245-45.2585ZM39.0179-37.5678L39.0179-41.0267C39.0179-41.5421 39.3452-41.8816 39.8223-41.8816L43.6389-41.8816C44.1177-41.8816 44.4588-41.5421 44.4588-41.0267L44.4588-37.5678C44.4588-37.0524 44.1177-36.7129 43.6389-36.7129L39.8223-36.7129C39.3452-36.7129 39.0179-37.0524 39.0179-37.5678ZM48.6245-37.5678L48.6245-41.0267C48.6245-41.5421 48.9379-41.8816 49.4289-41.8816L53.2471-41.8816C53.7243-41.8816 54.0654-41.5421 54.0654-41.0267L54.0654-37.5678C54.0654-37.0524 53.7243-36.7129 53.2471-36.7129L49.4289-36.7129C48.9379-36.7129 48.6245-37.0524 48.6245-37.5678ZM39.0179-29.8787L39.0179-33.336C39.0179-33.853 39.3452-34.1804 39.8223-34.1804L43.6389-34.1804C44.1177-34.1804 44.4588-33.853 44.4588-33.336L44.4588-29.8787C44.4588-29.3633 44.1177-29.0238 43.6389-29.0238L39.8223-29.0238C39.3452-29.0238 39.0179-29.3633 39.0179-29.8787ZM48.6245-29.8787L48.6245-33.336C48.6245-33.853 48.9379-34.1804 49.4289-34.1804L53.2471-34.1804C53.7243-34.1804 54.0654-33.853 54.0654-33.336L54.0654-29.8787C54.0654-29.3633 53.7243-29.0238 53.2471-29.0238L49.4289-29.0238C48.9379-29.0238 48.6245-29.3633 48.6245-29.8787Z"/>
  </g>
  <g id="Ultralight-S" transform="matrix(1 0 0 1 505.702 696)">
   <path class="SFSymbolsPreviewWireframe" d="M19.7647-1.65282L88.2539-1.65282C94.7871-1.65282 98.2529-5.20946 98.2529-11.6416L98.2529-58.8594C98.2529-65.2915 94.7871-68.8482 88.2539-68.8482L19.7647-68.8482C13.2349-68.8482 9.76562-65.3823 9.76562-58.8594L9.76562-11.6416C9.76562-5.11864 13.2349-1.65282 19.7647-1.65282ZM56.3649-15.2031L72.4286-15.2031C74.2291-15.2031 75.2308-16.2506 75.2308-18.1413L75.2308-41.4075C75.2308-43.2982 74.2291-44.3458 72.4286-44.3458L56.3649-44.3458C54.5644-44.3458 53.5771-43.2982 53.5771-41.4075L53.5771-18.1413C53.5771-16.2506 54.5644-15.2031 56.3649-15.2031ZM58.3168-34.9462C57.9881-34.9462 57.7815-35.1773 57.7815-35.516L57.7815-38.8918C57.7815-39.2161 57.9881-39.4372 58.3168-39.4372L61.7815-39.4372C62.1058-39.4372 62.3024-39.2161 62.3024-38.8918L62.3024-35.516C62.3024-35.1773 62.1058-34.9462 61.7815-34.9462ZM58.3168-27.5318C57.9881-27.5318 57.7815-27.7528 57.7815-28.0815L57.7815-31.4673C57.7815-31.8061 57.9881-32.0171 58.3168-32.0171L61.7815-32.0171C62.1058-32.0171 62.3024-31.8061 62.3024-31.4673L62.3024-28.0815C62.3024-27.7528 62.1058-27.5318 61.7815-27.5318ZM58.3168-20.1117C57.9881-20.1117 57.7815-20.3184 57.7815-20.6571L57.7815-24.0329C57.7815-24.3716 57.9881-24.6026 58.3168-24.6026L61.7815-24.6026C62.1058-24.6026 62.3024-24.3716 62.3024-24.0329L62.3024-20.6571C62.3024-20.3184 62.1058-20.1117 61.7815-20.1117ZM67.0365-34.9462C66.6877-34.9462 66.4911-35.1773 66.4911-35.516L66.4911-38.8918C66.4911-39.2161 66.6877-39.4372 67.0365-39.4372L70.4768-39.4372C70.8155-39.4372 71.0121-39.2161 71.0121-38.8918L71.0121-35.516C71.0121-35.1773 70.8155-34.9462 70.4768-34.9462ZM67.0365-27.5318C66.6877-27.5318 66.4911-27.7528 66.4911-28.0815L66.4911-31.4673C66.4911-31.8061 66.6877-32.0171 67.0365-32.0171L70.4768-32.0171C70.8155-32.0171 71.0121-31.8061 71.0121-31.4673L71.0121-28.0815C71.0121-27.7528 70.8155-27.5318 70.4768-27.5318ZM67.0365-20.1117C66.6877-20.1117 66.4911-20.3184 66.4911-20.6571L66.4911-24.0329C66.4911-24.3716 66.6877-24.6026 67.0365-24.6026L70.4768-24.6026C70.8155-24.6026 71.0121-24.3716 71.0121-24.0329L71.0121-20.6571C71.0121-20.3184 70.8155-20.1117 70.4768-20.1117ZM35.5758-13.1813L57.4927-13.1813C60.4454-13.1813 62.3024-15.1887 62.3024-18.1413L62.3024-52.2745C62.3024-55.2271 60.4454-57.2345 57.4927-57.2345L35.5758-57.2345C32.6332-57.2345 30.7661-55.2271 30.7661-52.2745L30.7661-18.1413C30.7661-15.1887 32.6332-13.1813 35.5758-13.1813ZM32.7879-18.1413C32.7879-16.2506 33.7897-15.2031 35.5758-15.2031L57.4927-15.2031C59.2932-15.2031 60.295-16.2506 60.295-18.1413L60.295-52.2745C60.295-54.1552 59.2932-55.2127 57.4927-55.2127L35.5758-55.2127C33.7897-55.2127 32.7879-54.1552 32.7879-52.2745ZM40.5798-17.179L40.5798-23.3426C40.5798-24.0977 41.0707-24.5929 41.8258-24.5929L51.7333-24.5929C52.4884-24.5929 52.9692-24.0977 52.9692-23.3426L52.9692-17.179ZM39.7262-45.0726L39.7262-49.1408C39.7262-49.5383 39.9816-49.8182 40.3792-49.8182L44.5262-49.8182C44.9094-49.8182 45.1749-49.5383 45.1749-49.1408L45.1749-45.0726C45.1749-44.6794 44.9094-44.3995 44.5262-44.3995L40.3792-44.3995C39.9816-44.3995 39.7262-44.6794 39.7262-45.0726ZM48.3598-45.0726L48.3598-49.1408C48.3598-49.5383 48.6052-49.8182 49.0129-49.8182L53.1455-49.8182C53.543-49.8182 53.8085-49.5383 53.8085-49.1408L53.8085-45.0726C53.8085-44.6794 53.543-44.3995 53.1455-44.3995L49.0129-44.3995C48.6052-44.3995 48.3598-44.6794 48.3598-45.0726ZM39.7262-36.8986L39.7262-40.9423C39.7262-41.3499 39.9816-41.6298 40.3792-41.6298L44.5262-41.6298C44.9094-41.6298 45.1749-41.3499 45.1749-40.9423L45.1749-36.8986C45.1749-36.491 44.9094-36.2111 44.5262-36.2111L40.3792-36.2111C39.9816-36.2111 39.7262-36.491 39.7262-36.8986ZM48.3598-36.8986L48.3598-40.9423C48.3598-41.3499 48.6052-41.6298 49.0129-41.6298L53.1455-41.6298C53.543-41.6298 53.8085-41.3499 53.8085-40.9423L53.8085-36.8986C53.8085-36.491 53.543-36.2111 53.1455-36.2111L49.0129-36.2111C48.6052-36.2111 48.3598-36.491 48.3598-36.8986ZM39.7262-28.7102L39.7262-32.7682C39.7262-33.1614 39.9816-33.4413 40.3792-33.4413L44.5262-33.4413C44.9094-33.4413 45.1749-33.1614 45.1749-32.7682L45.1749-28.7102C45.1749-28.3025 44.9094-28.0227 44.5262-28.0227L40.3792-28.0227C39.9816-28.0227 39.7262-28.3025 39.7262-28.7102ZM48.3598-28.7102L48.3598-32.7682C48.3598-33.1614 48.6052-33.4413 49.0129-33.4413L53.1455-33.4413C53.543-33.4413 53.8085-33.1614 53.8085-32.7682L53.8085-28.7102C53.8085-28.3025 53.543-28.0227 53.1455-28.0227L49.0129-28.0227C48.6052-28.0227 48.3598-28.3025 48.3598-28.7102Z"/>
  </g>
 </g>
 <g id="LayerTree">
  <g class="monochrome-0 multicolor-0:tintColor hierarchical-0:tertiary"/>
  <g class="monochrome-1 multicolor-1:white hierarchical-1:primary">
   <g class="shapeGroupLayer-0"/>
   <g class="shapeGroupLayer-1"/>
   <g class="shapeGroupLayer-2"/>
  </g>
 </g>
</svg>
