<?xml version="1.0" encoding="UTF-8"?>
<!--Generator: Apple Native CoreSVG 232.5-->
<!DOCTYPE svg
PUBLIC "-//W3C//DTD SVG 1.1//EN"
       "http://www.w3.org/Graphics/SVG/1.1/DTD/svg11.dtd">
<svg version="1.1" xmlns="http://www.w3.org/2000/svg" xmlns:xlink="http://www.w3.org/1999/xlink" width="3300" height="2200">
 <!--glyph: "", point size: 100.0, font version: "19.2d2e1", template writer version: "128"-->
 <style>.monochrome-0 {-sfsymbols-motion-group:1}
.monochrome-1 {-sfsymbols-motion-group:0;-sfsymbols-always-pulses:true}

.multicolor-0:tintColor {-sfsymbols-motion-group:1}
.multicolor-1:tintColor {-sfsymbols-motion-group:0;-sfsymbols-always-pulses:true}

.hierarchical-0:secondary {-sfsymbols-motion-group:1}
.hierarchical-1:primary {-sfsymbols-motion-group:0}

.SFSymbolsPreviewWireframe {fill:none;opacity:1.0;stroke:black;stroke-width:0.5}
</style>
 <g id="Notes">
  <rect height="2200" id="artboard" style="fill:white;opacity:1" width="3300" x="0" y="0"/>
  <line style="fill:none;stroke:black;opacity:1;stroke-width:0.5;" x1="263" x2="3036" y1="292" y2="292"/>
  <text style="stroke:none;fill:black;font-family:sans-serif;font-size:13;font-weight:bold;" transform="matrix(1 0 0 1 263 322)">Weight/Scale Variations</text>
  <text style="stroke:none;fill:black;font-family:sans-serif;font-size:13;text-anchor:middle;" transform="matrix(1 0 0 1 559.711 322)">Ultralight</text>
  <text style="stroke:none;fill:black;font-family:sans-serif;font-size:13;text-anchor:middle;" transform="matrix(1 0 0 1 856.422 322)">Thin</text>
  <text style="stroke:none;fill:black;font-family:sans-serif;font-size:13;text-anchor:middle;" transform="matrix(1 0 0 1 1153.13 322)">Light</text>
  <text style="stroke:none;fill:black;font-family:sans-serif;font-size:13;text-anchor:middle;" transform="matrix(1 0 0 1 1449.84 322)">Regular</text>
  <text style="stroke:none;fill:black;font-family:sans-serif;font-size:13;text-anchor:middle;" transform="matrix(1 0 0 1 1746.56 322)">Medium</text>
  <text style="stroke:none;fill:black;font-family:sans-serif;font-size:13;text-anchor:middle;" transform="matrix(1 0 0 1 2043.27 322)">Semibold</text>
  <text style="stroke:none;fill:black;font-family:sans-serif;font-size:13;text-anchor:middle;" transform="matrix(1 0 0 1 2339.98 322)">Bold</text>
  <text style="stroke:none;fill:black;font-family:sans-serif;font-size:13;text-anchor:middle;" transform="matrix(1 0 0 1 2636.69 322)">Heavy</text>
  <text style="stroke:none;fill:black;font-family:sans-serif;font-size:13;text-anchor:middle;" transform="matrix(1 0 0 1 2933.4 322)">Black</text>
  <line style="fill:none;stroke:black;opacity:1;stroke-width:0.5;" x1="263" x2="3036" y1="1903" y2="1903"/>
  <g transform="matrix(0.2 0 0 0.2 263 1933)">
   <path d="m46.2402 4.15039c21.5332 0 39.4531-17.8711 39.4531-39.4043s-17.9688-39.4043-39.502-39.4043c-21.4844 0-39.3555 17.8711-39.3555 39.4043s17.9199 39.4043 39.4043 39.4043Zm0-7.42188c-17.7246 0-31.8848-14.209-31.8848-31.9824s14.1113-31.9824 31.8359-31.9824c17.7734 0 32.0312 14.209 32.0312 31.9824s-14.209 31.9824-31.9824 31.9824Zm-17.9688-31.9824c0 2.14844 1.51367 3.61328 3.75977 3.61328h10.498v10.5957c0 2.19727 1.46484 3.71094 3.61328 3.71094 2.24609 0 3.71094-1.51367 3.71094-3.71094v-10.5957h10.5957c2.19727 0 3.71094-1.46484 3.71094-3.61328 0-2.19727-1.51367-3.71094-3.71094-3.71094h-10.5957v-10.5469c0-2.24609-1.46484-3.75977-3.71094-3.75977-2.14844 0-3.61328 1.51367-3.61328 3.75977v10.5469h-10.498c-2.24609 0-3.75977 1.51367-3.75977 3.71094Z"/>
  </g>
  <g transform="matrix(0.2 0 0 0.2 281.506 1933)">
   <path d="m58.5449 14.5508c27.2461 0 49.8047-22.6074 49.8047-49.8047 0-27.2461-22.6074-49.8047-49.8535-49.8047-27.1973 0-49.7559 22.5586-49.7559 49.8047 0 27.1973 22.6074 49.8047 49.8047 49.8047Zm0-8.30078c-23.0469 0-41.4551-18.457-41.4551-41.5039s18.3594-41.5039 41.4062-41.5039 41.5527 18.457 41.5527 41.5039-18.457 41.5039-41.5039 41.5039Zm-22.6562-41.5039c0 2.39258 1.66016 4.00391 4.15039 4.00391h14.3555v14.4043c0 2.44141 1.66016 4.15039 4.05273 4.15039 2.44141 0 4.15039-1.66016 4.15039-4.15039v-14.4043h14.4043c2.44141 0 4.15039-1.61133 4.15039-4.00391 0-2.44141-1.70898-4.15039-4.15039-4.15039h-14.4043v-14.3555c0-2.49023-1.70898-4.19922-4.15039-4.19922-2.39258 0-4.05273 1.70898-4.05273 4.19922v14.3555h-14.3555c-2.49023 0-4.15039 1.70898-4.15039 4.15039Z"/>
  </g>
  <g transform="matrix(0.2 0 0 0.2 304.924 1933)">
   <path d="m74.8535 28.3203c34.8145 0 63.623-28.8086 63.623-63.5742 0-34.8145-28.8574-63.623-63.6719-63.623-34.7656 0-63.5254 28.8086-63.5254 63.623 0 34.7656 28.8086 63.5742 63.5742 63.5742Zm0-9.08203c-30.1758 0-54.4434-24.3164-54.4434-54.4922 0-30.2246 24.2188-54.4922 54.3945-54.4922 30.2246 0 54.541 24.2676 54.541 54.4922 0 30.1758-24.2676 54.4922-54.4922 54.4922Zm-28.8574-54.4922c0 2.58789 1.85547 4.39453 4.58984 4.39453h19.7266v19.7754c0 2.68555 1.85547 4.58984 4.44336 4.58984 2.68555 0 4.54102-1.85547 4.54102-4.58984v-19.7754h19.7754c2.68555 0 4.58984-1.80664 4.58984-4.39453 0-2.73438-1.85547-4.58984-4.58984-4.58984h-19.7754v-19.7266c0-2.73438-1.85547-4.63867-4.54102-4.63867-2.58789 0-4.44336 1.9043-4.44336 4.63867v19.7266h-19.7266c-2.73438 0-4.58984 1.85547-4.58984 4.58984Z"/>
  </g>
  <text style="stroke:none;fill:black;font-family:sans-serif;font-size:13;font-weight:bold;" transform="matrix(1 0 0 1 263 1953)">Design Variations</text>
  <text style="stroke:none;fill:black;font-family:sans-serif;font-size:13;" transform="matrix(1 0 0 1 263 1971)">Symbols are supported in up to nine weights and three scales.</text>
  <text style="stroke:none;fill:black;font-family:sans-serif;font-size:13;" transform="matrix(1 0 0 1 263 1989)">For optimal layout with text and other symbols, vertically align</text>
  <text style="stroke:none;fill:black;font-family:sans-serif;font-size:13;" transform="matrix(1 0 0 1 263 2007)">symbols with the adjacent text.</text>
  <line style="fill:none;stroke:#00AEEF;stroke-width:0.5;opacity:1.0;" x1="776" x2="776" y1="1919" y2="1933"/>
  <g transform="matrix(0.2 0 0 0.2 776 1933)">
   <path d="m16.5527 0.78125c2.58789 0 3.85742-0.976562 4.78516-3.71094l6.29883-17.2363h28.8086l6.29883 17.2363c0.927734 2.73438 2.19727 3.71094 4.73633 3.71094 2.58789 0 4.24805-1.5625 4.24805-4.00391 0-0.830078-0.146484-1.61133-0.537109-2.63672l-22.9004-60.9863c-1.12305-2.97852-3.125-4.49219-6.25-4.49219-3.02734 0-5.07812 1.46484-6.15234 4.44336l-22.9004 61.084c-0.390625 1.02539-0.537109 1.80664-0.537109 2.63672 0 2.44141 1.5625 3.95508 4.10156 3.95508Zm13.4766-28.3691 11.8652-32.8613h0.244141l11.8652 32.8613Z"/>
  </g>
  <line style="fill:none;stroke:#00AEEF;stroke-width:0.5;opacity:1.0;" x1="792.836" x2="792.836" y1="1919" y2="1933"/>
  <text style="stroke:none;fill:black;font-family:sans-serif;font-size:13;font-weight:bold;" transform="matrix(1 0 0 1 776 1953)">Margins</text>
  <text style="stroke:none;fill:black;font-family:sans-serif;font-size:13;" transform="matrix(1 0 0 1 776 1971)">Leading and trailing margins on the left and right side of each symbol</text>
  <text style="stroke:none;fill:black;font-family:sans-serif;font-size:13;" transform="matrix(1 0 0 1 776 1989)">can be adjusted by modifying the x-location of the margin guidelines.</text>
  <text style="stroke:none;fill:black;font-family:sans-serif;font-size:13;" transform="matrix(1 0 0 1 776 2007)">Modifications are automatically applied proportionally to all</text>
  <text style="stroke:none;fill:black;font-family:sans-serif;font-size:13;" transform="matrix(1 0 0 1 776 2025)">scales and weights.</text>
  <g transform="matrix(0.2 0 0 0.2 1289 1933)">
   <path d="m14.209 9.32617 8.49609 8.54492c4.29688 4.3457 9.22852 4.05273 13.8672-1.07422l53.4668-58.9355-4.83398-4.88281-53.0762 58.3984c-1.75781 2.00195-3.41797 2.49023-5.76172 0.146484l-5.85938-5.81055c-2.34375-2.29492-1.80664-4.00391 0.195312-5.81055l57.373-54.0039-4.88281-4.83398-57.959 54.4434c-4.93164 4.58984-5.32227 9.47266-1.02539 13.8184Zm32.0801-90.9668c-2.09961 2.05078-2.24609 4.93164-1.07422 6.88477 1.17188 1.80664 3.4668 2.97852 6.68945 2.14844 7.32422-1.70898 14.9414-2.00195 22.0703 2.68555l-2.92969 7.27539c-1.70898 4.15039-0.830078 7.08008 1.85547 9.81445l11.4746 11.5723c2.44141 2.44141 4.49219 2.53906 7.32422 2.05078l5.32227-0.976562 3.32031 3.36914-0.195312 2.7832c-0.195312 2.49023 0.439453 4.39453 2.88086 6.78711l3.80859 3.71094c2.39258 2.39258 5.46875 2.53906 7.8125 0.195312l14.5508-14.5996c2.34375-2.34375 2.24609-5.32227-0.146484-7.71484l-3.85742-3.80859c-2.39258-2.39258-4.24805-3.17383-6.64062-2.97852l-2.88086 0.244141-3.22266-3.17383 1.2207-5.61523c0.634766-2.83203-0.146484-5.0293-3.07617-7.95898l-10.9863-10.9375c-16.6992-16.6016-38.8672-16.2109-53.3203-1.75781Zm7.4707 1.85547c12.1582-8.88672 28.6133-7.37305 39.7461 3.75977l12.1582 12.0605c1.17188 1.17188 1.36719 2.09961 1.02539 3.80859l-1.61133 7.42188 7.51953 7.42188 4.93164-0.292969c1.26953-0.0488281 1.66016 0.0488281 2.63672 1.02539l2.88086 2.88086-12.207 12.207-2.88086-2.88086c-0.976562-0.976562-1.12305-1.36719-1.07422-2.68555l0.341797-4.88281-7.4707-7.42188-7.61719 1.26953c-1.61133 0.341797-2.34375 0.195312-3.56445-0.976562l-10.0098-10.0098c-1.26953-1.17188-1.41602-2.00195-0.634766-3.85742l4.39453-10.4492c-7.8125-7.27539-17.9688-10.4004-28.125-7.42188-0.78125 0.195312-1.07422-0.439453-0.439453-0.976562Z"/>
  </g>
  <text style="stroke:none;fill:black;font-family:sans-serif;font-size:13;font-weight:bold;" transform="matrix(1 0 0 1 1289 1953)">Exporting</text>
  <text style="stroke:none;fill:black;font-family:sans-serif;font-size:13;" transform="matrix(1 0 0 1 1289 1971)">Symbols should be outlined when exporting to ensure the</text>
  <text style="stroke:none;fill:black;font-family:sans-serif;font-size:13;" transform="matrix(1 0 0 1 1289 1989)">design is preserved when submitting to Xcode.</text>
  <text id="template-version" style="stroke:none;fill:black;font-family:sans-serif;font-size:13;text-anchor:end;" transform="matrix(1 0 0 1 3036 1933)">Template v.5.0</text>
  <text style="stroke:none;fill:black;font-family:sans-serif;font-size:13;text-anchor:end;" transform="matrix(1 0 0 1 3036 1951)">Requires Xcode 15 or greater</text>
  <text id="descriptive-name" style="stroke:none;fill:black;font-family:sans-serif;font-size:13;text-anchor:end;" transform="matrix(1 0 0 1 3036 1969)">Generated from rectangle</text>
  <text style="stroke:none;fill:black;font-family:sans-serif;font-size:13;text-anchor:end;" transform="matrix(1 0 0 1 3036 1987)">Typeset at 100.0 points</text>
  <text style="stroke:none;fill:black;font-family:sans-serif;font-size:13;" transform="matrix(1 0 0 1 263 726)">Small</text>
  <text style="stroke:none;fill:black;font-family:sans-serif;font-size:13;" transform="matrix(1 0 0 1 263 1156)">Medium</text>
  <text style="stroke:none;fill:black;font-family:sans-serif;font-size:13;" transform="matrix(1 0 0 1 263 1586)">Large</text>
 </g>
 <g id="Guides">
  <g id="H-reference" style="fill:#27AAE1;stroke:none;" transform="matrix(1 0 0 1 339 696)">
   <path d="M0.993654 0L3.63775 0L29.3281-67.1323L30.0303-67.1323L30.0303-70.459L28.1226-70.459ZM11.6885-24.4799L46.9815-24.4799L46.2315-26.7285L12.4385-26.7285ZM55.1196 0L57.7637 0L30.6382-70.459L29.4326-70.459L29.4326-67.1323Z"/>
  </g>
  <line id="Baseline-S" style="fill:none;stroke:#27AAE1;opacity:1;stroke-width:0.5;" x1="263" x2="3036" y1="696" y2="696"/>
  <line id="Capline-S" style="fill:none;stroke:#27AAE1;opacity:1;stroke-width:0.5;" x1="263" x2="3036" y1="625.541" y2="625.541"/>
  <g id="H-reference" style="fill:#27AAE1;stroke:none;" transform="matrix(1 0 0 1 339 1126)">
   <path d="M0.993654 0L3.63775 0L29.3281-67.1323L30.0303-67.1323L30.0303-70.459L28.1226-70.459ZM11.6885-24.4799L46.9815-24.4799L46.2315-26.7285L12.4385-26.7285ZM55.1196 0L57.7637 0L30.6382-70.459L29.4326-70.459L29.4326-67.1323Z"/>
  </g>
  <line id="Baseline-M" style="fill:none;stroke:#27AAE1;opacity:1;stroke-width:0.5;" x1="263" x2="3036" y1="1126" y2="1126"/>
  <line id="Capline-M" style="fill:none;stroke:#27AAE1;opacity:1;stroke-width:0.5;" x1="263" x2="3036" y1="1055.54" y2="1055.54"/>
  <g id="H-reference" style="fill:#27AAE1;stroke:none;" transform="matrix(1 0 0 1 339 1556)">
   <path d="M0.993654 0L3.63775 0L29.3281-67.1323L30.0303-67.1323L30.0303-70.459L28.1226-70.459ZM11.6885-24.4799L46.9815-24.4799L46.2315-26.7285L12.4385-26.7285ZM55.1196 0L57.7637 0L30.6382-70.459L29.4326-70.459L29.4326-67.1323Z"/>
  </g>
  <line id="Baseline-L" style="fill:none;stroke:#27AAE1;opacity:1;stroke-width:0.5;" x1="263" x2="3036" y1="1556" y2="1556"/>
  <line id="Capline-L" style="fill:none;stroke:#27AAE1;opacity:1;stroke-width:0.5;" x1="263" x2="3036" y1="1485.54" y2="1485.54"/>
  <line id="left-margin-Ultralight-S" style="fill:none;stroke:#00AEEF;stroke-width:0.5;opacity:1.0;" x1="505.702" x2="505.702" y1="600.785" y2="720.121"/>
  <line id="right-margin-Ultralight-S" style="fill:none;stroke:#00AEEF;stroke-width:0.5;opacity:1.0;" x1="613.72" x2="613.72" y1="600.785" y2="720.121"/>
  <line id="left-margin-Regular-S" style="fill:none;stroke:#00AEEF;stroke-width:0.5;opacity:1.0;" x1="1394.79" x2="1394.79" y1="600.785" y2="720.121"/>
  <line id="right-margin-Regular-S" style="fill:none;stroke:#00AEEF;stroke-width:0.5;opacity:1.0;" x1="1504.9" x2="1504.9" y1="600.785" y2="720.121"/>
  <line id="left-margin-Black-S" style="fill:none;stroke:#00AEEF;stroke-width:0.5;opacity:1.0;" x1="2877.35" x2="2877.35" y1="600.785" y2="720.121"/>
  <line id="right-margin-Black-S" style="fill:none;stroke:#00AEEF;stroke-width:0.5;opacity:1.0;" x1="2989.45" x2="2989.45" y1="600.785" y2="720.121"/>
 </g>
 <g id="Symbols">
  <g id="Black-S" transform="matrix(1 0 0 1 2877.35 696)">
   <path class="monochrome-0 multicolor-0:tintColor hierarchical-0:secondary SFSymbolsPreviewWireframe" d="M25 2.92969L87.1094 2.92969C96.6797 2.92969 102.344-2.73438 102.344-12.3047L102.344-58.1055C102.344-67.6758 96.6797-73.3398 87.1094-73.3398L25-73.3398C15.4297-73.3398 9.76562-67.6758 9.76562-58.1055L9.76562-12.3047C9.76562-2.73438 15.4297 2.92969 25 2.92969ZM27.2461-11.2305C25-11.2305 23.9258-12.1094 23.9258-14.5508L23.9258-55.8594C23.9258-58.3008 25-59.1797 27.2461-59.1797L84.8633-59.1797C87.1094-59.1797 88.1836-58.3008 88.1836-55.8594L88.1836-14.5508C88.1836-12.1094 87.1094-11.2305 84.8633-11.2305Z"/>
   <path class="monochrome-1 multicolor-1:tintColor hierarchical-1:primary SFSymbolsPreviewWireframe" d="M57.5969-15.5842C58.9532-15.5842 60.6126-16.2799 63.1908-16.2799C65.8741-16.2799 66.8075-15.5842 68.835-15.5842C71.5805-15.5842 73.4961-16.8808 73.4961-19.2672C73.4961-22.4989 71.0101-26.1378 64.9018-26.1378C61.4732-26.1378 60.2037-25.2284 58.1405-24.9809L55.5829-30.2221C53.0784-35.3633 47.9465-37.1888 43.4666-37.1888L40.9816-37.1888C39.6632-37.1888 38.8706-37.9156 38.8706-39.074C38.8706-40.99 40.9888-41.461 43.2957-41.461C49.8666-41.461 55.8967-38.4306 59.3459-31.5601L60.576-29.1503C61.85-29.358 63.2371-29.48 64.6745-29.48C65.831-29.48 67.1055-29.4069 68.288-28.9711C69.6119-29.3369 71.0851-29.7594 71.8309-30.2193C74.2485-28.8222 76.5223-26.7691 82.0301-26.7691C85.3531-26.7691 88.0587-28.9259 88.0587-34.3971C88.0587-40.635 84.1397-47.0394 75.8491-46.4389L72.0639-52.9506C69.6036-57.1503 65.5718-58.8458 61.8417-58.8458C58.9124-58.8458 52.8493-57.3396 52.8493-55.1044C52.8493-53.7916 56.2203-51.5083 58.7211-49.7178L68.9084-42.3758C68.1622-41.8276 67.6988-41.292 66.1363-41.292C64.1771-41.292 61.8922-42.9237 60.1422-43.7688C53.5463-48.284 50.1197-51.1964 42.6767-51.1964C36.5285-51.1964 30.524-48.0293 27.8404-39.3073C25.645-39.5188 24.0475-38.1884 24.0475-36.2687C24.0475-34.1886 25.7809-32.7834 28.341-32.9082C31.4665-26.7812 35.0313-24.8942 41.8064-24.8942C42.2211-24.8942 42.6617-24.8927 43.1023-24.9216L51.3678-17.7775C53.3417-16.0556 55.8109-15.5842 57.5969-15.5842ZM40.7027-13.7992C43.8941-13.7992 46.2195-14.3029 48.168-15.5206L42.5292-20.4456C42.2606-20.4212 41.9782-20.3968 41.6774-20.3968C40.8322-20.3968 38.6876-20.7232 37.1453-20.7232C35.0746-20.7232 33.743-19.6429 33.743-17.9921C33.743-15.4974 36.5222-13.7992 40.7027-13.7992ZM78.8258-34.5885C77.4937-34.5885 76.3929-35.712 76.3929-37.0458C76.3929-38.4359 77.4891-39.5853 78.8533-39.5853C80.213-39.5853 81.3132-38.4832 81.3132-37.1464C81.3132-35.7304 80.1885-34.5885 78.8258-34.5885Z"/>
  </g>
  <g id="Regular-S" transform="matrix(1 0 0 1 1394.79 696)">
   <path class="monochrome-0 multicolor-0:tintColor hierarchical-0:secondary SFSymbolsPreviewWireframe" d="M22.2168 0.390625L87.8906 0.390625C96.2402 0.390625 100.342-3.71094 100.342-11.9141L100.342-58.4961C100.342-66.6992 96.2402-70.8008 87.8906-70.8008L22.2168-70.8008C13.916-70.8008 9.76562-66.6992 9.76562-58.4961L9.76562-11.9141C9.76562-3.71094 13.916 0.390625 22.2168 0.390625ZM22.3145-6.68945C18.7988-6.68945 16.7969-8.59375 16.7969-12.2559L16.7969-58.1543C16.7969-61.8652 18.7988-63.7207 22.3145-63.7207L87.793-63.7207C91.3086-63.7207 93.3105-61.8652 93.3105-58.1543L93.3105-12.2559C93.3105-8.59375 91.3086-6.68945 87.793-6.68945Z"/>
   <path class="monochrome-1 multicolor-1:tintColor hierarchical-1:primary SFSymbolsPreviewWireframe" d="M56.5091-16.4801C57.8739-16.4801 59.2169-17.1408 61.8064-17.1408C64.4242-17.1408 65.1966-16.4801 67.1387-16.4801C69.9344-16.4801 71.5869-17.7054 71.5869-19.9354C71.5869-23.3101 68.4827-26.1262 62.5099-26.1262C59.3961-26.1262 58.1265-25.603 56.3235-25.2576L54.0289-30.2401C51.8183-34.9697 47.7836-37.4867 43.1622-37.4867L40.8002-37.4867C39.8064-37.4867 39.1593-37.991 39.1593-38.9341C39.1593-40.4501 40.9849-40.833 42.9913-40.833C49.0404-40.833 53.9973-37.7451 56.9345-31.2298L58.2009-28.3779C59.4876-28.6205 60.8915-28.7426 62.3008-28.7426C63.4532-28.7426 64.6328-28.6694 65.7662-28.4016C66.9881-29.0514 68.3874-29.7215 69.8678-30.2801C72.1303-28.9254 74.4034-27.5736 78.1534-27.5736C82.673-27.5736 85.1997-29.144 85.1997-34.4436C85.1997-40.4811 81.164-45.7576 74.1824-45.587L69.5684-52.2568C66.8294-56.2313 63.142-57.9771 59.6233-57.9771C56.7639-57.9771 51.7303-56.3939 51.7303-54.1207C51.7303-52.6765 55.0079-50.4068 57.4302-48.7897L68.0792-41.7329C67.4009-41.1812 66.8006-40.7185 65.592-40.7185C63.8719-40.7185 61.9407-41.9938 59.8591-43.1271C53.645-47.0085 49.555-50.069 42.8592-50.069C36.5654-50.069 31.2241-46.5968 28.595-38.7336C26.4835-38.8234 24.9056-37.4691 24.9056-35.5158C24.9056-33.3531 26.6685-31.9395 29.1306-31.9929C32.0897-27.1378 36.2844-25.4566 42.2394-25.4566C42.5841-25.4566 42.9394-25.4705 43.2946-25.4826L51.3029-18.612C53.3149-16.8156 54.9092-16.4801 56.5091-16.4801ZM41.4834-14.7379C45.0095-14.7379 47.2732-15.3929 49.1209-16.6414L43.3267-21.6352C43.0582-21.6108 42.7562-21.5864 42.4036-21.5864C41.4476-21.5864 39.8241-21.8792 38.1331-21.8792C36.0162-21.8792 34.6283-20.7429 34.6283-19.0107C34.6283-16.4445 37.3756-14.7379 41.4834-14.7379ZM76.6035-34.9986C75.5173-34.9986 74.6573-35.8969 74.6573-36.9691C74.6573-38.0795 75.5296-39.0177 76.6293-39.0177C77.7416-39.0177 78.6013-38.1422 78.6013-37.0684C78.6013-35.9475 77.7171-34.9986 76.6035-34.9986Z"/>
  </g>
  <g id="Ultralight-S" transform="matrix(1 0 0 1 505.702 696)">
   <path class="monochrome-0 multicolor-0:tintColor hierarchical-0:secondary SFSymbolsPreviewWireframe" d="M19.7647-1.65282L88.2539-1.65282C94.7871-1.65282 98.2529-5.20946 98.2529-11.6416L98.2529-58.8594C98.2529-65.2915 94.7871-68.8482 88.2539-68.8482L19.7647-68.8482C13.2349-68.8482 9.76562-65.3823 9.76562-58.8594L9.76562-11.6416C9.76562-5.11864 13.2349-1.65282 19.7647-1.65282ZM19.8623-3.87405C14.6665-3.87405 11.9834-6.55031 11.9834-11.7564L11.9834-58.7446C11.9834-63.9541 14.6665-66.6269 19.8623-66.6269L88.1562-66.6269C93.1704-66.6269 96.0351-63.9541 96.0351-58.7446L96.0351-11.7564C96.0351-6.55031 93.1704-3.87405 88.1562-3.87405Z"/>
   <path class="monochrome-1 multicolor-1:tintColor hierarchical-1:primary SFSymbolsPreviewWireframe" d="M55.3648-18.2834C56.6456-18.2834 57.9701-18.9037 60.3278-18.9037C62.733-18.9037 63.4641-18.2834 65.3296-18.2834C68.1616-18.2834 69.684-19.4121 69.684-21.1087C69.684-24.3165 65.803-26.5382 60.3034-26.5382C57.552-26.5382 56.2825-26.294 54.7575-25.9078L52.773-30.4483C50.6847-35.1507 47.3225-37.837 42.884-37.837L40.6711-37.837C39.9718-37.837 39.5498-38.1357 39.5498-38.773C39.5498-39.8498 41.0892-40.124 42.7131-40.124C48.1901-40.124 52.2066-37.0997 54.6838-31.0512L56.0065-27.8198C57.2573-28.1028 58.6733-28.2248 60.1225-28.2248C61.2267-28.2248 62.0376-28.1516 63.1506-28.0051C64.2837-28.8452 65.5545-29.8292 67.3406-31.1647C69.4458-29.3903 72.2588-28.3199 74.9792-28.3199C80.0482-28.3199 82.3257-29.4818 82.3257-34.0719C82.3257-40.3399 77.4845-44.9515 72.1694-44.6563L67.257-51.5154C64.572-55.252 61.0432-57.0343 57.6021-57.0343C54.8233-57.0343 50.9538-55.4704 50.9538-53.305C50.9538-51.7957 53.8786-49.8662 56.3043-48.4345L67.377-41.9439C66.0271-40.6241 65.1176-40.0939 64.1798-40.0939C62.8576-40.0939 61.5572-40.7064 59.2811-42.0779C53.4779-45.3664 48.9989-48.6841 42.9329-48.6841C36.594-48.6841 31.8219-45.1415 29.2772-38.2891C27.2264-38.2459 25.6927-36.9795 25.6927-35.0019C25.6927-32.7946 27.4317-31.465 29.8531-31.4218C32.5268-27.6206 36.9064-25.9531 42.479-25.9531C42.7432-25.9531 43.0218-25.9631 43.3003-25.9631L50.8826-20.0707C52.6068-18.6858 53.9143-18.2834 55.3648-18.2834ZM41.1936-17.2176C44.7663-17.2176 47.0455-17.8017 49.0005-19.0425L43.0491-23.7408C42.7805-23.7164 42.4344-23.6919 42.0293-23.6919C41.2486-23.6919 39.461-23.9605 38.0529-23.9605C35.9477-23.9605 34.8194-22.9038 34.8194-21.323C34.8194-18.8402 37.1984-17.2176 41.1936-17.2176ZM74.354-35.1898C73.5658-35.1898 72.94-35.8503 72.94-36.6284C72.94-37.4166 73.5903-38.0972 74.364-38.0972C75.1624-38.0972 75.7883-37.4755 75.7883-36.7117C75.7883-35.9091 75.1379-35.1898 74.354-35.1898Z"/>
  </g>
 </g>
</svg>
