<?xml version="1.0" encoding="UTF-8"?>
<!--Generator: Apple Native CoreSVG 232.5-->
<!DOCTYPE svg
PUBLIC "-//W3C//DTD SVG 1.1//EN"
       "http://www.w3.org/Graphics/SVG/1.1/DTD/svg11.dtd">
<svg version="1.1" xmlns="http://www.w3.org/2000/svg" xmlns:xlink="http://www.w3.org/1999/xlink" width="3300" height="2200">
 <!--glyph: "", point size: 100.0, font version: "19.2d2e1", template writer version: "128"-->
 <style>.monochrome-0 {-sfsymbols-motion-group:1;-sfsymbols-indices:0 1}
.monochrome-1 {-sfsymbols-motion-group:0;-sfsymbols-always-pulses:true}

.multicolor-0:tintColor {-sfsymbols-motion-group:1;-sfsymbols-indices:0 1}
.multicolor-1:tintColor {-sfsymbols-motion-group:0;-sfsymbols-always-pulses:true}

.hierarchical-0:secondary {-sfsymbols-motion-group:1;-sfsymbols-indices:0 1}
.hierarchical-1:primary {-sfsymbols-motion-group:0}

.shapeGroupLayer-0 {-sfsymbols-fill-action:draw;-sfsymbols-indices:2}
.shapeGroupLayer-1 {-sfsymbols-fill-action:erase;-sfsymbols-indices:3}
.shapeGroupLayer-2 {-sfsymbols-fill-action:draw;-sfsymbols-indices:4}
.shapeGroupLayer-3 {-sfsymbols-fill-action:draw;-sfsymbols-indices:5}
.shapeGroupLayer-4 {-sfsymbols-fill-action:erase;-sfsymbols-indices:6}
.shapeGroupLayer-5 {-sfsymbols-fill-action:draw;-sfsymbols-indices:7}
.shapeGroupLayer-6 {-sfsymbols-fill-action:erase;-sfsymbols-indices:8 11}
.shapeGroupLayer-7 {-sfsymbols-fill-action:draw;-sfsymbols-indices:9 10}
.shapeGroupLayer-8 {-sfsymbols-fill-action:erase;-sfsymbols-indices:11}
.shapeGroupLayer-9 {-sfsymbols-fill-action:draw;-sfsymbols-indices:12}

.SFSymbolsPreviewWireframe {fill:none;opacity:1.0;stroke:black;stroke-width:0.5}
</style>
 <g id="Notes">
  <rect height="2200" id="artboard" style="fill:white;opacity:1" width="3300" x="0" y="0"/>
  <line style="fill:none;stroke:black;opacity:1;stroke-width:0.5;" x1="263" x2="3036" y1="292" y2="292"/>
  <text style="stroke:none;fill:black;font-family:sans-serif;font-size:13;font-weight:bold;" transform="matrix(1 0 0 1 263 322)">Weight/Scale Variations</text>
  <text style="stroke:none;fill:black;font-family:sans-serif;font-size:13;text-anchor:middle;" transform="matrix(1 0 0 1 559.711 322)">Ultralight</text>
  <text style="stroke:none;fill:black;font-family:sans-serif;font-size:13;text-anchor:middle;" transform="matrix(1 0 0 1 856.422 322)">Thin</text>
  <text style="stroke:none;fill:black;font-family:sans-serif;font-size:13;text-anchor:middle;" transform="matrix(1 0 0 1 1153.13 322)">Light</text>
  <text style="stroke:none;fill:black;font-family:sans-serif;font-size:13;text-anchor:middle;" transform="matrix(1 0 0 1 1449.84 322)">Regular</text>
  <text style="stroke:none;fill:black;font-family:sans-serif;font-size:13;text-anchor:middle;" transform="matrix(1 0 0 1 1746.56 322)">Medium</text>
  <text style="stroke:none;fill:black;font-family:sans-serif;font-size:13;text-anchor:middle;" transform="matrix(1 0 0 1 2043.27 322)">Semibold</text>
  <text style="stroke:none;fill:black;font-family:sans-serif;font-size:13;text-anchor:middle;" transform="matrix(1 0 0 1 2339.98 322)">Bold</text>
  <text style="stroke:none;fill:black;font-family:sans-serif;font-size:13;text-anchor:middle;" transform="matrix(1 0 0 1 2636.69 322)">Heavy</text>
  <text style="stroke:none;fill:black;font-family:sans-serif;font-size:13;text-anchor:middle;" transform="matrix(1 0 0 1 2933.4 322)">Black</text>
  <line style="fill:none;stroke:black;opacity:1;stroke-width:0.5;" x1="263" x2="3036" y1="1903" y2="1903"/>
  <g transform="matrix(0.2 0 0 0.2 263 1933)">
   <path d="m46.2402 4.15039c21.5332 0 39.4531-17.8711 39.4531-39.4043s-17.9688-39.4043-39.502-39.4043c-21.4844 0-39.3555 17.8711-39.3555 39.4043s17.9199 39.4043 39.4043 39.4043Zm0-7.42188c-17.7246 0-31.8848-14.209-31.8848-31.9824s14.1113-31.9824 31.8359-31.9824c17.7734 0 32.0312 14.209 32.0312 31.9824s-14.209 31.9824-31.9824 31.9824Zm-17.9688-31.9824c0 2.14844 1.51367 3.61328 3.75977 3.61328h10.498v10.5957c0 2.19727 1.46484 3.71094 3.61328 3.71094 2.24609 0 3.71094-1.51367 3.71094-3.71094v-10.5957h10.5957c2.19727 0 3.71094-1.46484 3.71094-3.61328 0-2.19727-1.51367-3.71094-3.71094-3.71094h-10.5957v-10.5469c0-2.24609-1.46484-3.75977-3.71094-3.75977-2.14844 0-3.61328 1.51367-3.61328 3.75977v10.5469h-10.498c-2.24609 0-3.75977 1.51367-3.75977 3.71094Z"/>
  </g>
  <g transform="matrix(0.2 0 0 0.2 281.506 1933)">
   <path d="m58.5449 14.5508c27.2461 0 49.8047-22.6074 49.8047-49.8047 0-27.2461-22.6074-49.8047-49.8535-49.8047-27.1973 0-49.7559 22.5586-49.7559 49.8047 0 27.1973 22.6074 49.8047 49.8047 49.8047Zm0-8.30078c-23.0469 0-41.4551-18.457-41.4551-41.5039s18.3594-41.5039 41.4062-41.5039 41.5527 18.457 41.5527 41.5039-18.457 41.5039-41.5039 41.5039Zm-22.6562-41.5039c0 2.39258 1.66016 4.00391 4.15039 4.00391h14.3555v14.4043c0 2.44141 1.66016 4.15039 4.05273 4.15039 2.44141 0 4.15039-1.66016 4.15039-4.15039v-14.4043h14.4043c2.44141 0 4.15039-1.61133 4.15039-4.00391 0-2.44141-1.70898-4.15039-4.15039-4.15039h-14.4043v-14.3555c0-2.49023-1.70898-4.19922-4.15039-4.19922-2.39258 0-4.05273 1.70898-4.05273 4.19922v14.3555h-14.3555c-2.49023 0-4.15039 1.70898-4.15039 4.15039Z"/>
  </g>
  <g transform="matrix(0.2 0 0 0.2 304.924 1933)">
   <path d="m74.8535 28.3203c34.8145 0 63.623-28.8086 63.623-63.5742 0-34.8145-28.8574-63.623-63.6719-63.623-34.7656 0-63.5254 28.8086-63.5254 63.623 0 34.7656 28.8086 63.5742 63.5742 63.5742Zm0-9.08203c-30.1758 0-54.4434-24.3164-54.4434-54.4922 0-30.2246 24.2188-54.4922 54.3945-54.4922 30.2246 0 54.541 24.2676 54.541 54.4922 0 30.1758-24.2676 54.4922-54.4922 54.4922Zm-28.8574-54.4922c0 2.58789 1.85547 4.39453 4.58984 4.39453h19.7266v19.7754c0 2.68555 1.85547 4.58984 4.44336 4.58984 2.68555 0 4.54102-1.85547 4.54102-4.58984v-19.7754h19.7754c2.68555 0 4.58984-1.80664 4.58984-4.39453 0-2.73438-1.85547-4.58984-4.58984-4.58984h-19.7754v-19.7266c0-2.73438-1.85547-4.63867-4.54102-4.63867-2.58789 0-4.44336 1.9043-4.44336 4.63867v19.7266h-19.7266c-2.73438 0-4.58984 1.85547-4.58984 4.58984Z"/>
  </g>
  <text style="stroke:none;fill:black;font-family:sans-serif;font-size:13;font-weight:bold;" transform="matrix(1 0 0 1 263 1953)">Design Variations</text>
  <text style="stroke:none;fill:black;font-family:sans-serif;font-size:13;" transform="matrix(1 0 0 1 263 1971)">Symbols are supported in up to nine weights and three scales.</text>
  <text style="stroke:none;fill:black;font-family:sans-serif;font-size:13;" transform="matrix(1 0 0 1 263 1989)">For optimal layout with text and other symbols, vertically align</text>
  <text style="stroke:none;fill:black;font-family:sans-serif;font-size:13;" transform="matrix(1 0 0 1 263 2007)">symbols with the adjacent text.</text>
  <line style="fill:none;stroke:#00AEEF;stroke-width:0.5;opacity:1.0;" x1="776" x2="776" y1="1919" y2="1933"/>
  <g transform="matrix(0.2 0 0 0.2 776 1933)">
   <path d="m16.5527 0.78125c2.58789 0 3.85742-0.976562 4.78516-3.71094l6.29883-17.2363h28.8086l6.29883 17.2363c0.927734 2.73438 2.19727 3.71094 4.73633 3.71094 2.58789 0 4.24805-1.5625 4.24805-4.00391 0-0.830078-0.146484-1.61133-0.537109-2.63672l-22.9004-60.9863c-1.12305-2.97852-3.125-4.49219-6.25-4.49219-3.02734 0-5.07812 1.46484-6.15234 4.44336l-22.9004 61.084c-0.390625 1.02539-0.537109 1.80664-0.537109 2.63672 0 2.44141 1.5625 3.95508 4.10156 3.95508Zm13.4766-28.3691 11.8652-32.8613h0.244141l11.8652 32.8613Z"/>
  </g>
  <line style="fill:none;stroke:#00AEEF;stroke-width:0.5;opacity:1.0;" x1="792.836" x2="792.836" y1="1919" y2="1933"/>
  <text style="stroke:none;fill:black;font-family:sans-serif;font-size:13;font-weight:bold;" transform="matrix(1 0 0 1 776 1953)">Margins</text>
  <text style="stroke:none;fill:black;font-family:sans-serif;font-size:13;" transform="matrix(1 0 0 1 776 1971)">Leading and trailing margins on the left and right side of each symbol</text>
  <text style="stroke:none;fill:black;font-family:sans-serif;font-size:13;" transform="matrix(1 0 0 1 776 1989)">can be adjusted by modifying the x-location of the margin guidelines.</text>
  <text style="stroke:none;fill:black;font-family:sans-serif;font-size:13;" transform="matrix(1 0 0 1 776 2007)">Modifications are automatically applied proportionally to all</text>
  <text style="stroke:none;fill:black;font-family:sans-serif;font-size:13;" transform="matrix(1 0 0 1 776 2025)">scales and weights.</text>
  <g transform="matrix(0.2 0 0 0.2 1289 1933)">
   <path d="m14.209 9.32617 8.49609 8.54492c4.29688 4.3457 9.22852 4.05273 13.8672-1.07422l53.4668-58.9355-4.83398-4.88281-53.0762 58.3984c-1.75781 2.00195-3.41797 2.49023-5.76172 0.146484l-5.85938-5.81055c-2.34375-2.29492-1.80664-4.00391 0.195312-5.81055l57.373-54.0039-4.88281-4.83398-57.959 54.4434c-4.93164 4.58984-5.32227 9.47266-1.02539 13.8184Zm32.0801-90.9668c-2.09961 2.05078-2.24609 4.93164-1.07422 6.88477 1.17188 1.80664 3.4668 2.97852 6.68945 2.14844 7.32422-1.70898 14.9414-2.00195 22.0703 2.68555l-2.92969 7.27539c-1.70898 4.15039-0.830078 7.08008 1.85547 9.81445l11.4746 11.5723c2.44141 2.44141 4.49219 2.53906 7.32422 2.05078l5.32227-0.976562 3.32031 3.36914-0.195312 2.7832c-0.195312 2.49023 0.439453 4.39453 2.88086 6.78711l3.80859 3.71094c2.39258 2.39258 5.46875 2.53906 7.8125 0.195312l14.5508-14.5996c2.34375-2.34375 2.24609-5.32227-0.146484-7.71484l-3.85742-3.80859c-2.39258-2.39258-4.24805-3.17383-6.64062-2.97852l-2.88086 0.244141-3.22266-3.17383 1.2207-5.61523c0.634766-2.83203-0.146484-5.0293-3.07617-7.95898l-10.9863-10.9375c-16.6992-16.6016-38.8672-16.2109-53.3203-1.75781Zm7.4707 1.85547c12.1582-8.88672 28.6133-7.37305 39.7461 3.75977l12.1582 12.0605c1.17188 1.17188 1.36719 2.09961 1.02539 3.80859l-1.61133 7.42188 7.51953 7.42188 4.93164-0.292969c1.26953-0.0488281 1.66016 0.0488281 2.63672 1.02539l2.88086 2.88086-12.207 12.207-2.88086-2.88086c-0.976562-0.976562-1.12305-1.36719-1.07422-2.68555l0.341797-4.88281-7.4707-7.42188-7.61719 1.26953c-1.61133 0.341797-2.34375 0.195312-3.56445-0.976562l-10.0098-10.0098c-1.26953-1.17188-1.41602-2.00195-0.634766-3.85742l4.39453-10.4492c-7.8125-7.27539-17.9688-10.4004-28.125-7.42188-0.78125 0.195312-1.07422-0.439453-0.439453-0.976562Z"/>
  </g>
  <text style="stroke:none;fill:black;font-family:sans-serif;font-size:13;font-weight:bold;" transform="matrix(1 0 0 1 1289 1953)">Exporting</text>
  <text style="stroke:none;fill:black;font-family:sans-serif;font-size:13;" transform="matrix(1 0 0 1 1289 1971)">Symbols should be outlined when exporting to ensure the</text>
  <text style="stroke:none;fill:black;font-family:sans-serif;font-size:13;" transform="matrix(1 0 0 1 1289 1989)">design is preserved when submitting to Xcode.</text>
  <text id="template-version" style="stroke:none;fill:black;font-family:sans-serif;font-size:13;text-anchor:end;" transform="matrix(1 0 0 1 3036 1933)">Template v.5.0</text>
  <text style="stroke:none;fill:black;font-family:sans-serif;font-size:13;text-anchor:end;" transform="matrix(1 0 0 1 3036 1951)">Requires Xcode 15 or greater</text>
  <text id="descriptive-name" style="stroke:none;fill:black;font-family:sans-serif;font-size:13;text-anchor:end;" transform="matrix(1 0 0 1 3036 1969)">Generated from rectangle</text>
  <text style="stroke:none;fill:black;font-family:sans-serif;font-size:13;text-anchor:end;" transform="matrix(1 0 0 1 3036 1987)">Typeset at 100.0 points</text>
  <text style="stroke:none;fill:black;font-family:sans-serif;font-size:13;" transform="matrix(1 0 0 1 263 726)">Small</text>
  <text style="stroke:none;fill:black;font-family:sans-serif;font-size:13;" transform="matrix(1 0 0 1 263 1156)">Medium</text>
  <text style="stroke:none;fill:black;font-family:sans-serif;font-size:13;" transform="matrix(1 0 0 1 263 1586)">Large</text>
 </g>
 <g id="Guides">
  <g id="H-reference" style="fill:#27AAE1;stroke:none;" transform="matrix(1 0 0 1 339 696)">
   <path d="M0.993654 0L3.63775 0L29.3281-67.1323L30.0303-67.1323L30.0303-70.459L28.1226-70.459ZM11.6885-24.4799L46.9815-24.4799L46.2315-26.7285L12.4385-26.7285ZM55.1196 0L57.7637 0L30.6382-70.459L29.4326-70.459L29.4326-67.1323Z"/>
  </g>
  <line id="Baseline-S" style="fill:none;stroke:#27AAE1;opacity:1;stroke-width:0.5;" x1="263" x2="3036" y1="696" y2="696"/>
  <line id="Capline-S" style="fill:none;stroke:#27AAE1;opacity:1;stroke-width:0.5;" x1="263" x2="3036" y1="625.541" y2="625.541"/>
  <g id="H-reference" style="fill:#27AAE1;stroke:none;" transform="matrix(1 0 0 1 339 1126)">
   <path d="M0.993654 0L3.63775 0L29.3281-67.1323L30.0303-67.1323L30.0303-70.459L28.1226-70.459ZM11.6885-24.4799L46.9815-24.4799L46.2315-26.7285L12.4385-26.7285ZM55.1196 0L57.7637 0L30.6382-70.459L29.4326-70.459L29.4326-67.1323Z"/>
  </g>
  <line id="Baseline-M" style="fill:none;stroke:#27AAE1;opacity:1;stroke-width:0.5;" x1="263" x2="3036" y1="1126" y2="1126"/>
  <line id="Capline-M" style="fill:none;stroke:#27AAE1;opacity:1;stroke-width:0.5;" x1="263" x2="3036" y1="1055.54" y2="1055.54"/>
  <g id="H-reference" style="fill:#27AAE1;stroke:none;" transform="matrix(1 0 0 1 339 1556)">
   <path d="M0.993654 0L3.63775 0L29.3281-67.1323L30.0303-67.1323L30.0303-70.459L28.1226-70.459ZM11.6885-24.4799L46.9815-24.4799L46.2315-26.7285L12.4385-26.7285ZM55.1196 0L57.7637 0L30.6382-70.459L29.4326-70.459L29.4326-67.1323Z"/>
  </g>
  <line id="Baseline-L" style="fill:none;stroke:#27AAE1;opacity:1;stroke-width:0.5;" x1="263" x2="3036" y1="1556" y2="1556"/>
  <line id="Capline-L" style="fill:none;stroke:#27AAE1;opacity:1;stroke-width:0.5;" x1="263" x2="3036" y1="1485.54" y2="1485.54"/>
  <line id="left-margin-Ultralight-S" style="fill:none;stroke:#00AEEF;stroke-width:0.5;opacity:1.0;" x1="505.702" x2="505.702" y1="600.785" y2="720.121"/>
  <line id="right-margin-Ultralight-S" style="fill:none;stroke:#00AEEF;stroke-width:0.5;opacity:1.0;" x1="613.72" x2="613.72" y1="600.785" y2="720.121"/>
  <line id="left-margin-Regular-S" style="fill:none;stroke:#00AEEF;stroke-width:0.5;opacity:1.0;" x1="1394.79" x2="1394.79" y1="600.785" y2="720.121"/>
  <line id="right-margin-Regular-S" style="fill:none;stroke:#00AEEF;stroke-width:0.5;opacity:1.0;" x1="1504.9" x2="1504.9" y1="600.785" y2="720.121"/>
  <line id="left-margin-Black-S" style="fill:none;stroke:#00AEEF;stroke-width:0.5;opacity:1.0;" x1="2877.35" x2="2877.35" y1="600.785" y2="720.121"/>
  <line id="right-margin-Black-S" style="fill:none;stroke:#00AEEF;stroke-width:0.5;opacity:1.0;" x1="2989.45" x2="2989.45" y1="600.785" y2="720.121"/>
 </g>
 <g id="Symbols">
  <g id="Black-S" transform="matrix(1 0 0 1 2877.35 696)">
   <path class="SFSymbolsPreviewWireframe" d="M25 2.92969L87.1094 2.92969C96.6797 2.92969 102.344-2.73438 102.344-12.3047L102.344-58.1055C102.344-67.6758 96.6797-73.3398 87.1094-73.3398L25-73.3398C15.4297-73.3398 9.76562-67.6758 9.76562-58.1055L9.76562-12.3047C9.76562-2.73438 15.4297 2.92969 25 2.92969ZM27.2461-11.2305C25-11.2305 23.9258-12.1094 23.9258-14.5508L23.9258-55.8594C23.9258-58.3008 25-59.1797 27.2461-59.1797L84.8633-59.1797C87.1094-59.1797 88.1836-58.3008 88.1836-55.8594L88.1836-14.5508C88.1836-12.1094 87.1094-11.2305 84.8633-11.2305ZM21.5306-14.0843L46.0958-14.0843C50.122-14.0843 52.5624-16.5322 52.5624-20.2402L52.5624-30.2724L15.0625-30.2724L15.0625-20.2402C15.0625-16.5322 17.5059-14.0843 21.5306-14.0843ZM15.6013-24.9399L52.0251-24.9399C59.4715-24.9399 62.2172-34.198 56.2412-38.5234L43.0671-48.2304C41.6368-49.2976 39.7467-49.8783 37.8909-49.8783L29.734-49.8783C27.8797-49.8783 25.9926-49.2976 24.5622-48.2304L11.3882-38.5234C5.40931-34.198 8.15329-24.9399 15.6013-24.9399ZM15.6013-28.3468L52.0251-28.3468C56.2063-28.3468 57.554-33.3777 54.2353-35.7825L41.0628-45.4605C40.1813-46.101 39.0319-46.4713 37.8909-46.4713L29.734-46.4713C28.593-46.4713 27.4436-46.101 26.5666-45.4605L13.391-35.7825C10.0738-33.3777 11.4186-28.3468 15.6013-28.3468ZM90.619-14.0843C94.6441-14.0843 97.0875-16.5322 97.0875-20.2402L97.0875-30.2724L59.5877-30.2724L59.5877-20.2402C59.5877-16.5322 62.0311-14.0843 66.0556-14.0843ZM96.5487-24.9399C103.996-24.9399 106.741-34.198 100.765-38.5234L87.5921-48.2304C86.1285-49.2687 84.2716-49.8783 82.4161-49.8783L74.2592-49.8783C72.403-49.8783 70.5447-49.2687 69.0856-48.2304L55.9086-38.5234C49.9328-34.198 52.6782-24.9399 60.1244-24.9399ZM96.5487-28.3468C100.731-28.3468 102.079-33.3777 98.7588-35.7825L85.5877-45.4605C84.7061-46.101 83.557-46.4713 82.4161-46.4713L74.2592-46.4713C73.1182-46.4713 71.9685-46.101 71.0869-45.4605L57.916-35.7825C54.5988-33.3777 55.9435-28.3468 60.1244-28.3468ZM37.7832-10.9666L74.3712-10.9666C80.1079-10.9666 83.9601-14.8156 83.9601-20.2402L83.9601-29.961L56.0757-53.669L28.1929-29.9351L28.1929-20.2402C28.1929-14.8156 32.0114-10.9666 37.7832-10.9666ZM37.7512-14.0843L74.3391-14.0843C78.3657-14.0843 80.839-16.5322 80.839-20.2402L80.839-28.5126L56.0757-49.5743L31.3106-28.4836L31.2816-20.2402C31.3106-16.5322 33.7251-14.0843 37.7512-14.0843ZM50.1254-22.1506L50.1254-29.7184C50.1254-30.7397 50.7917-31.3831 51.8145-31.3831L60.3052-31.3831C61.3233-31.3831 61.9663-30.7397 61.9663-29.7184L61.9663-22.1506ZM36.1128-27.2782L56.0712-44.3011L76.0049-27.2782C83.8038-20.681 92.8099-31.5837 85.4122-37.8533L63.1-56.8589C59.0377-60.3109 53.1424-60.3398 49.0196-56.8589L26.7359-37.8503C19.3473-31.5837 28.3203-20.6825 36.1128-27.2782ZM34.0731-29.6597L54.452-47.0451C55.4721-47.8928 56.6443-47.8928 57.637-47.0451L78.0158-29.6597C82.7086-25.7027 87.6615-31.8669 83.3729-35.4688L61.0601-54.4744C58.1461-56.9554 54.0037-56.9554 51.0288-54.4744L28.7177-35.4688C24.4911-31.8669 29.4093-25.7027 34.0731-29.6597Z"/>
  </g>
  <g id="Regular-S" transform="matrix(1 0 0 1 1394.79 696)">
   <path class="SFSymbolsPreviewWireframe" d="M22.2168 0.390625L87.8906 0.390625C96.2402 0.390625 100.342-3.71094 100.342-11.9141L100.342-58.4961C100.342-66.6992 96.2402-70.8008 87.8906-70.8008L22.2168-70.8008C13.916-70.8008 9.76562-66.6992 9.76562-58.4961L9.76562-11.9141C9.76562-3.71094 13.916 0.390625 22.2168 0.390625ZM22.3145-6.68945C18.7988-6.68945 16.7969-8.59375 16.7969-12.2559L16.7969-58.1543C16.7969-61.8652 18.7988-63.7207 22.3145-63.7207L87.793-63.7207C91.3086-63.7207 93.3105-61.8652 93.3105-58.1543L93.3105-12.2559C93.3105-8.59375 91.3086-6.68945 87.793-6.68945ZM22.0326-16.4746L45.9613-16.4746C49.2433-16.4746 51.2081-18.3994 51.2081-21.5185L51.2081-31.8668L16.7997-31.8668L16.7997-21.5185C16.7997-18.3994 18.7662-16.4746 22.0326-16.4746ZM15.7893-26.9326L52.2046-26.9326C58.0447-26.9326 60.1612-34.1355 55.6297-37.4179L42.8286-46.7401C41.6039-47.6296 40.0396-48.1167 38.4972-48.1167L29.5106-48.1167C27.9543-48.1167 26.3916-47.6296 25.1669-46.7401L12.3658-37.4179C7.83275-34.1355 9.96304-26.9326 15.7893-26.9326ZM15.7893-30.0409L52.2046-30.0409C55.0544-30.0409 55.9238-33.3921 53.8109-34.9058L40.9958-44.2159C40.3033-44.7247 39.3946-45.0083 38.4972-45.0083L29.5106-45.0083C28.6132-45.0083 27.7045-44.7247 26.9997-44.2159L14.183-34.9058C12.0856-33.3921 12.9534-30.0409 15.7893-30.0409ZM88.0929-16.4746C91.3595-16.4746 93.3261-18.3994 93.3261-21.5185L93.3261-31.8668L58.9176-31.8668L58.9176-21.5185C58.9176-18.3994 60.8842-16.4746 64.1503-16.4746ZM94.3365-26.9326C100.162-26.9326 102.293-34.1355 97.7615-37.4179L84.9463-46.7401C83.7221-47.6175 82.1574-48.1167 80.6151-48.1167L71.6284-48.1167C70.086-48.1167 68.5354-47.6175 67.2985-46.7401L54.4958-37.4179C49.9645-34.1355 52.0808-26.9326 57.9209-26.9326ZM94.3365-30.0409C97.1723-30.0409 98.0417-33.3921 95.9427-34.9058L83.1136-44.2159C82.4211-44.7247 81.5124-45.0083 80.6151-45.0083L71.6284-45.0083C70.731-45.0083 69.8224-44.7247 69.1299-44.2159L56.3008-34.9058C54.2034-33.3921 55.0712-30.0409 57.9209-30.0409ZM37.5348-13.4876L72.5785-13.4876C77.496-13.4876 80.8002-16.7607 80.8002-21.5185L80.8002-32.4509L55.0559-53.4448L29.3271-32.4404L29.3271-21.5185C29.3271-16.7607 32.6314-13.4876 37.5348-13.4876ZM37.521-16.4746L72.5647-16.4746C75.8469-16.4746 77.8114-18.3994 77.8114-21.5185L77.8114-31.0398L55.0559-49.5883L32.3141-31.0277L32.302-21.5185C32.3141-18.3994 34.2685-16.4746 37.521-16.4746ZM49.6849-21.8795L49.6849-29.8214C49.6849-30.752 50.322-31.3507 51.2388-31.3507L58.8888-31.3507C59.8177-31.3507 60.4163-30.752 60.4163-29.8214L60.4163-21.8795ZM35.279-28.5759L55.0681-44.6939L74.8329-28.5759C81.0827-23.4619 88.1695-32.2933 82.3194-37.1103L60.5039-54.9084C57.2137-57.5995 52.9101-57.6117 49.5942-54.9084L27.7905-37.1087C21.9452-32.2933 29.0325-23.4774 35.279-28.5759ZM33.39-30.895L53.9278-47.6197C54.6482-48.2126 55.4776-48.2126 56.172-47.6197L76.7097-30.895C79.92-28.2527 83.269-32.4702 80.4307-34.7895L58.6147-52.5877C56.424-54.4125 53.7016-54.4125 51.485-52.5877L29.6553-34.7895C26.8581-32.4702 30.1917-28.2527 33.39-30.895Z"/>
  </g>
  <g id="Ultralight-S" transform="matrix(1 0 0 1 505.702 696)">
   <path class="SFSymbolsPreviewWireframe" d="M19.7647-1.65282L88.2539-1.65282C94.7871-1.65282 98.2529-5.20946 98.2529-11.6416L98.2529-58.8594C98.2529-65.2915 94.7871-68.8482 88.2539-68.8482L19.7647-68.8482C13.2349-68.8482 9.76562-65.3823 9.76562-58.8594L9.76562-11.6416C9.76562-5.11864 13.2349-1.65282 19.7647-1.65282ZM19.8623-3.87405C14.6665-3.87405 11.9834-6.55031 11.9834-11.7564L11.9834-58.7446C11.9834-63.9541 14.6665-66.6269 19.8623-66.6269L88.1562-66.6269C93.1704-66.6269 96.0351-63.9541 96.0351-58.7446L96.0351-11.7564C96.0351-6.55031 93.1704-3.87405 88.1562-3.87405ZM24.183-19.3576L47.4866-19.3576C49.9908-19.3576 51.3718-20.6942 51.3718-23.1927L51.3718-32.4632L20.3078-32.4632L20.3078-23.1927C20.3078-20.6942 21.6745-19.3576 24.183-19.3576ZM18.3133-29.7685L53.3564-29.7685C56.4596-29.7685 57.4909-33.5949 55.0991-35.193L43.333-42.7959C42.3019-43.452 41.2282-43.7663 39.8523-43.7663L31.8274-43.7663C30.4414-43.7663 29.3533-43.452 28.3223-42.7959L16.5562-35.193C14.1787-33.5949 15.2201-29.7685 18.3133-29.7685ZM18.3133-31.7903L53.3564-31.7903C54.4635-31.7903 54.7172-33.0121 53.9857-33.5068L42.2096-41.1097C41.5186-41.5535 40.8437-41.7445 39.8523-41.7445L31.8274-41.7445C30.8359-41.7445 30.1611-41.5535 29.4456-41.1097L17.6839-33.5068C16.9481-33.0121 17.2162-31.7903 18.3133-31.7903ZM83.8068-19.3576C86.3153-19.3576 87.6821-20.6942 87.6821-23.1927L87.6821-32.4632L56.618-32.4632L56.618-23.1927C56.618-20.6942 57.9848-19.3576 60.4931-19.3576ZM89.6765-29.7685C92.7696-29.7685 93.8112-33.5949 91.4192-35.193L79.6432-42.7959C78.6365-43.452 77.5385-43.7663 76.1623-43.7663L68.1375-43.7663C66.7618-43.7663 65.6734-43.452 64.6424-42.7959L52.8908-35.193C50.4989-33.5949 51.5302-29.7685 54.6335-29.7685ZM89.6765-31.7903C90.7736-31.7903 91.0272-33.0121 90.3059-33.5068L78.5196-41.1097C77.8289-41.5535 77.154-41.7445 76.1623-41.7445L68.1375-41.7445C67.1461-41.7445 66.4715-41.5535 65.7804-41.1097L53.9941-33.5068C53.2583-33.0121 53.5263-31.7903 54.6335-31.7903ZM38.1071-17.3358L69.8582-17.3358C73.4932-17.3358 75.741-19.5922 75.741-23.1927L75.741-35.2105L53.9899-52.1268L32.2345-35.1961L32.2345-23.1927C32.2345-19.5922 34.5066-17.3358 38.1071-17.3358ZM38.1215-19.3576L69.8727-19.3576C72.3768-19.3576 73.7335-20.6942 73.7335-23.1927L73.7335-34.2319L53.9899-49.5684L34.2563-34.2319L34.2563-23.1927C34.2563-20.6942 35.623-19.3576 38.1215-19.3576ZM48.9475-21.2933L48.9475-30.4663C48.9475-31.0761 49.4284-31.5225 50.0282-31.5225L57.9717-31.5225C58.5959-31.5225 59.0423-31.0761 59.0423-30.4663L59.0423-21.2933ZM32.9063-30.4742L54.0143-46.8693L75.098-30.4742C78.3674-27.9482 82.011-32.6708 78.9451-35.0722L57.4134-51.8329C55.2214-53.5539 52.7584-53.5539 50.5809-51.8329L29.049-35.0866C25.94-32.6708 29.6082-27.9438 32.9063-30.4742ZM31.6665-32.0727L52.9496-48.6203C53.6638-49.1792 54.3505-49.1792 55.0546-48.6203L76.3377-32.0727C77.5163-31.1609 78.7005-32.7109 77.7055-33.4881L56.1736-50.2487C54.7005-51.4044 53.2893-51.4044 51.8307-50.2487L30.2887-33.4881C29.2749-32.7109 30.4879-31.1609 31.6665-32.0727Z"/>
  </g>
 </g>
 <g id="LayerTree">
  <g class="monochrome-0 multicolor-0:tintColor hierarchical-0:secondary"/>
  <g class="monochrome-1 multicolor-1:tintColor hierarchical-1:primary">
   <g class="shapeGroupLayer-0"/>
   <g class="shapeGroupLayer-1"/>
   <g class="shapeGroupLayer-2"/>
   <g class="shapeGroupLayer-3"/>
   <g class="shapeGroupLayer-4"/>
   <g class="shapeGroupLayer-5"/>
   <g class="shapeGroupLayer-6"/>
   <g class="shapeGroupLayer-7"/>
   <g class="shapeGroupLayer-8"/>
   <g class="shapeGroupLayer-9"/>
  </g>
 </g>
</svg>
