<?xml version="1.0" encoding="UTF-8"?>
<!--Generator: Apple Native CoreSVG 232.5-->
<!DOCTYPE svg
PUBLIC "-//W3C//DTD SVG 1.1//EN"
       "http://www.w3.org/Graphics/SVG/1.1/DTD/svg11.dtd">
<svg version="1.1" xmlns="http://www.w3.org/2000/svg" xmlns:xlink="http://www.w3.org/1999/xlink" width="3300" height="2200">
 <!--glyph: "", point size: 100.0, font version: "19.2d2e1", template writer version: "128"-->
 <style>.monochrome-0 {-sfsymbols-motion-group:1}
.monochrome-1 {-sfsymbols-motion-group:0;-sfsymbols-always-pulses:true}
.monochrome-2 {-sfsymbols-motion-group:0;-sfsymbols-always-pulses:true}

.multicolor-0:labelColor {-sfsymbols-motion-group:1}
.multicolor-1:labelColor {-sfsymbols-motion-group:0;-sfsymbols-always-pulses:true}
.multicolor-2:labelColor {-sfsymbols-motion-group:0;-sfsymbols-always-pulses:true}

.hierarchical-0:secondary {-sfsymbols-motion-group:1}
.hierarchical-1:primary {-sfsymbols-motion-group:0}
.hierarchical-2:primary {-sfsymbols-motion-group:0}

.SFSymbolsPreviewWireframe {fill:none;opacity:1.0;stroke:black;stroke-width:0.5}
</style>
 <g id="Notes">
  <rect height="2200" id="artboard" style="fill:white;opacity:1" width="3300" x="0" y="0"/>
  <line style="fill:none;stroke:black;opacity:1;stroke-width:0.5;" x1="263" x2="3036" y1="292" y2="292"/>
  <text style="stroke:none;fill:black;font-family:sans-serif;font-size:13;font-weight:bold;" transform="matrix(1 0 0 1 263 322)">Weight/Scale Variations</text>
  <text style="stroke:none;fill:black;font-family:sans-serif;font-size:13;text-anchor:middle;" transform="matrix(1 0 0 1 559.711 322)">Ultralight</text>
  <text style="stroke:none;fill:black;font-family:sans-serif;font-size:13;text-anchor:middle;" transform="matrix(1 0 0 1 856.422 322)">Thin</text>
  <text style="stroke:none;fill:black;font-family:sans-serif;font-size:13;text-anchor:middle;" transform="matrix(1 0 0 1 1153.13 322)">Light</text>
  <text style="stroke:none;fill:black;font-family:sans-serif;font-size:13;text-anchor:middle;" transform="matrix(1 0 0 1 1449.84 322)">Regular</text>
  <text style="stroke:none;fill:black;font-family:sans-serif;font-size:13;text-anchor:middle;" transform="matrix(1 0 0 1 1746.56 322)">Medium</text>
  <text style="stroke:none;fill:black;font-family:sans-serif;font-size:13;text-anchor:middle;" transform="matrix(1 0 0 1 2043.27 322)">Semibold</text>
  <text style="stroke:none;fill:black;font-family:sans-serif;font-size:13;text-anchor:middle;" transform="matrix(1 0 0 1 2339.98 322)">Bold</text>
  <text style="stroke:none;fill:black;font-family:sans-serif;font-size:13;text-anchor:middle;" transform="matrix(1 0 0 1 2636.69 322)">Heavy</text>
  <text style="stroke:none;fill:black;font-family:sans-serif;font-size:13;text-anchor:middle;" transform="matrix(1 0 0 1 2933.4 322)">Black</text>
  <line style="fill:none;stroke:black;opacity:1;stroke-width:0.5;" x1="263" x2="3036" y1="1903" y2="1903"/>
  <g transform="matrix(0.2 0 0 0.2 263 1933)">
   <path d="m46.2402 4.15039c21.5332 0 39.4531-17.8711 39.4531-39.4043s-17.9688-39.4043-39.502-39.4043c-21.4844 0-39.3555 17.8711-39.3555 39.4043s17.9199 39.4043 39.4043 39.4043Zm0-7.42188c-17.7246 0-31.8848-14.209-31.8848-31.9824s14.1113-31.9824 31.8359-31.9824c17.7734 0 32.0312 14.209 32.0312 31.9824s-14.209 31.9824-31.9824 31.9824Zm-17.9688-31.9824c0 2.14844 1.51367 3.61328 3.75977 3.61328h10.498v10.5957c0 2.19727 1.46484 3.71094 3.61328 3.71094 2.24609 0 3.71094-1.51367 3.71094-3.71094v-10.5957h10.5957c2.19727 0 3.71094-1.46484 3.71094-3.61328 0-2.19727-1.51367-3.71094-3.71094-3.71094h-10.5957v-10.5469c0-2.24609-1.46484-3.75977-3.71094-3.75977-2.14844 0-3.61328 1.51367-3.61328 3.75977v10.5469h-10.498c-2.24609 0-3.75977 1.51367-3.75977 3.71094Z"/>
  </g>
  <g transform="matrix(0.2 0 0 0.2 281.506 1933)">
   <path d="m58.5449 14.5508c27.2461 0 49.8047-22.6074 49.8047-49.8047 0-27.2461-22.6074-49.8047-49.8535-49.8047-27.1973 0-49.7559 22.5586-49.7559 49.8047 0 27.1973 22.6074 49.8047 49.8047 49.8047Zm0-8.30078c-23.0469 0-41.4551-18.457-41.4551-41.5039s18.3594-41.5039 41.4062-41.5039 41.5527 18.457 41.5527 41.5039-18.457 41.5039-41.5039 41.5039Zm-22.6562-41.5039c0 2.39258 1.66016 4.00391 4.15039 4.00391h14.3555v14.4043c0 2.44141 1.66016 4.15039 4.05273 4.15039 2.44141 0 4.15039-1.66016 4.15039-4.15039v-14.4043h14.4043c2.44141 0 4.15039-1.61133 4.15039-4.00391 0-2.44141-1.70898-4.15039-4.15039-4.15039h-14.4043v-14.3555c0-2.49023-1.70898-4.19922-4.15039-4.19922-2.39258 0-4.05273 1.70898-4.05273 4.19922v14.3555h-14.3555c-2.49023 0-4.15039 1.70898-4.15039 4.15039Z"/>
  </g>
  <g transform="matrix(0.2 0 0 0.2 304.924 1933)">
   <path d="m74.8535 28.3203c34.8145 0 63.623-28.8086 63.623-63.5742 0-34.8145-28.8574-63.623-63.6719-63.623-34.7656 0-63.5254 28.8086-63.5254 63.623 0 34.7656 28.8086 63.5742 63.5742 63.5742Zm0-9.08203c-30.1758 0-54.4434-24.3164-54.4434-54.4922 0-30.2246 24.2188-54.4922 54.3945-54.4922 30.2246 0 54.541 24.2676 54.541 54.4922 0 30.1758-24.2676 54.4922-54.4922 54.4922Zm-28.8574-54.4922c0 2.58789 1.85547 4.39453 4.58984 4.39453h19.7266v19.7754c0 2.68555 1.85547 4.58984 4.44336 4.58984 2.68555 0 4.54102-1.85547 4.54102-4.58984v-19.7754h19.7754c2.68555 0 4.58984-1.80664 4.58984-4.39453 0-2.73438-1.85547-4.58984-4.58984-4.58984h-19.7754v-19.7266c0-2.73438-1.85547-4.63867-4.54102-4.63867-2.58789 0-4.44336 1.9043-4.44336 4.63867v19.7266h-19.7266c-2.73438 0-4.58984 1.85547-4.58984 4.58984Z"/>
  </g>
  <text style="stroke:none;fill:black;font-family:sans-serif;font-size:13;font-weight:bold;" transform="matrix(1 0 0 1 263 1953)">Design Variations</text>
  <text style="stroke:none;fill:black;font-family:sans-serif;font-size:13;" transform="matrix(1 0 0 1 263 1971)">Symbols are supported in up to nine weights and three scales.</text>
  <text style="stroke:none;fill:black;font-family:sans-serif;font-size:13;" transform="matrix(1 0 0 1 263 1989)">For optimal layout with text and other symbols, vertically align</text>
  <text style="stroke:none;fill:black;font-family:sans-serif;font-size:13;" transform="matrix(1 0 0 1 263 2007)">symbols with the adjacent text.</text>
  <line style="fill:none;stroke:#00AEEF;stroke-width:0.5;opacity:1.0;" x1="776" x2="776" y1="1919" y2="1933"/>
  <g transform="matrix(0.2 0 0 0.2 776 1933)">
   <path d="m16.5527 0.78125c2.58789 0 3.85742-0.976562 4.78516-3.71094l6.29883-17.2363h28.8086l6.29883 17.2363c0.927734 2.73438 2.19727 3.71094 4.73633 3.71094 2.58789 0 4.24805-1.5625 4.24805-4.00391 0-0.830078-0.146484-1.61133-0.537109-2.63672l-22.9004-60.9863c-1.12305-2.97852-3.125-4.49219-6.25-4.49219-3.02734 0-5.07812 1.46484-6.15234 4.44336l-22.9004 61.084c-0.390625 1.02539-0.537109 1.80664-0.537109 2.63672 0 2.44141 1.5625 3.95508 4.10156 3.95508Zm13.4766-28.3691 11.8652-32.8613h0.244141l11.8652 32.8613Z"/>
  </g>
  <line style="fill:none;stroke:#00AEEF;stroke-width:0.5;opacity:1.0;" x1="792.836" x2="792.836" y1="1919" y2="1933"/>
  <text style="stroke:none;fill:black;font-family:sans-serif;font-size:13;font-weight:bold;" transform="matrix(1 0 0 1 776 1953)">Margins</text>
  <text style="stroke:none;fill:black;font-family:sans-serif;font-size:13;" transform="matrix(1 0 0 1 776 1971)">Leading and trailing margins on the left and right side of each symbol</text>
  <text style="stroke:none;fill:black;font-family:sans-serif;font-size:13;" transform="matrix(1 0 0 1 776 1989)">can be adjusted by modifying the x-location of the margin guidelines.</text>
  <text style="stroke:none;fill:black;font-family:sans-serif;font-size:13;" transform="matrix(1 0 0 1 776 2007)">Modifications are automatically applied proportionally to all</text>
  <text style="stroke:none;fill:black;font-family:sans-serif;font-size:13;" transform="matrix(1 0 0 1 776 2025)">scales and weights.</text>
  <g transform="matrix(0.2 0 0 0.2 1289 1933)">
   <path d="m14.209 9.32617 8.49609 8.54492c4.29688 4.3457 9.22852 4.05273 13.8672-1.07422l53.4668-58.9355-4.83398-4.88281-53.0762 58.3984c-1.75781 2.00195-3.41797 2.49023-5.76172 0.146484l-5.85938-5.81055c-2.34375-2.29492-1.80664-4.00391 0.195312-5.81055l57.373-54.0039-4.88281-4.83398-57.959 54.4434c-4.93164 4.58984-5.32227 9.47266-1.02539 13.8184Zm32.0801-90.9668c-2.09961 2.05078-2.24609 4.93164-1.07422 6.88477 1.17188 1.80664 3.4668 2.97852 6.68945 2.14844 7.32422-1.70898 14.9414-2.00195 22.0703 2.68555l-2.92969 7.27539c-1.70898 4.15039-0.830078 7.08008 1.85547 9.81445l11.4746 11.5723c2.44141 2.44141 4.49219 2.53906 7.32422 2.05078l5.32227-0.976562 3.32031 3.36914-0.195312 2.7832c-0.195312 2.49023 0.439453 4.39453 2.88086 6.78711l3.80859 3.71094c2.39258 2.39258 5.46875 2.53906 7.8125 0.195312l14.5508-14.5996c2.34375-2.34375 2.24609-5.32227-0.146484-7.71484l-3.85742-3.80859c-2.39258-2.39258-4.24805-3.17383-6.64062-2.97852l-2.88086 0.244141-3.22266-3.17383 1.2207-5.61523c0.634766-2.83203-0.146484-5.0293-3.07617-7.95898l-10.9863-10.9375c-16.6992-16.6016-38.8672-16.2109-53.3203-1.75781Zm7.4707 1.85547c12.1582-8.88672 28.6133-7.37305 39.7461 3.75977l12.1582 12.0605c1.17188 1.17188 1.36719 2.09961 1.02539 3.80859l-1.61133 7.42188 7.51953 7.42188 4.93164-0.292969c1.26953-0.0488281 1.66016 0.0488281 2.63672 1.02539l2.88086 2.88086-12.207 12.207-2.88086-2.88086c-0.976562-0.976562-1.12305-1.36719-1.07422-2.68555l0.341797-4.88281-7.4707-7.42188-7.61719 1.26953c-1.61133 0.341797-2.34375 0.195312-3.56445-0.976562l-10.0098-10.0098c-1.26953-1.17188-1.41602-2.00195-0.634766-3.85742l4.39453-10.4492c-7.8125-7.27539-17.9688-10.4004-28.125-7.42188-0.78125 0.195312-1.07422-0.439453-0.439453-0.976562Z"/>
  </g>
  <text style="stroke:none;fill:black;font-family:sans-serif;font-size:13;font-weight:bold;" transform="matrix(1 0 0 1 1289 1953)">Exporting</text>
  <text style="stroke:none;fill:black;font-family:sans-serif;font-size:13;" transform="matrix(1 0 0 1 1289 1971)">Symbols should be outlined when exporting to ensure the</text>
  <text style="stroke:none;fill:black;font-family:sans-serif;font-size:13;" transform="matrix(1 0 0 1 1289 1989)">design is preserved when submitting to Xcode.</text>
  <text id="template-version" style="stroke:none;fill:black;font-family:sans-serif;font-size:13;text-anchor:end;" transform="matrix(1 0 0 1 3036 1933)">Template v.5.0</text>
  <text style="stroke:none;fill:black;font-family:sans-serif;font-size:13;text-anchor:end;" transform="matrix(1 0 0 1 3036 1951)">Requires Xcode 15 or greater</text>
  <text id="descriptive-name" style="stroke:none;fill:black;font-family:sans-serif;font-size:13;text-anchor:end;" transform="matrix(1 0 0 1 3036 1969)">Generated from rectangle</text>
  <text style="stroke:none;fill:black;font-family:sans-serif;font-size:13;text-anchor:end;" transform="matrix(1 0 0 1 3036 1987)">Typeset at 100.0 points</text>
  <text style="stroke:none;fill:black;font-family:sans-serif;font-size:13;" transform="matrix(1 0 0 1 263 726)">Small</text>
  <text style="stroke:none;fill:black;font-family:sans-serif;font-size:13;" transform="matrix(1 0 0 1 263 1156)">Medium</text>
  <text style="stroke:none;fill:black;font-family:sans-serif;font-size:13;" transform="matrix(1 0 0 1 263 1586)">Large</text>
 </g>
 <g id="Guides">
  <g id="H-reference" style="fill:#27AAE1;stroke:none;" transform="matrix(1 0 0 1 339 696)">
   <path d="M0.993654 0L3.63775 0L29.3281-67.1323L30.0303-67.1323L30.0303-70.459L28.1226-70.459ZM11.6885-24.4799L46.9815-24.4799L46.2315-26.7285L12.4385-26.7285ZM55.1196 0L57.7637 0L30.6382-70.459L29.4326-70.459L29.4326-67.1323Z"/>
  </g>
  <line id="Baseline-S" style="fill:none;stroke:#27AAE1;opacity:1;stroke-width:0.5;" x1="263" x2="3036" y1="696" y2="696"/>
  <line id="Capline-S" style="fill:none;stroke:#27AAE1;opacity:1;stroke-width:0.5;" x1="263" x2="3036" y1="625.541" y2="625.541"/>
  <g id="H-reference" style="fill:#27AAE1;stroke:none;" transform="matrix(1 0 0 1 339 1126)">
   <path d="M0.993654 0L3.63775 0L29.3281-67.1323L30.0303-67.1323L30.0303-70.459L28.1226-70.459ZM11.6885-24.4799L46.9815-24.4799L46.2315-26.7285L12.4385-26.7285ZM55.1196 0L57.7637 0L30.6382-70.459L29.4326-70.459L29.4326-67.1323Z"/>
  </g>
  <line id="Baseline-M" style="fill:none;stroke:#27AAE1;opacity:1;stroke-width:0.5;" x1="263" x2="3036" y1="1126" y2="1126"/>
  <line id="Capline-M" style="fill:none;stroke:#27AAE1;opacity:1;stroke-width:0.5;" x1="263" x2="3036" y1="1055.54" y2="1055.54"/>
  <g id="H-reference" style="fill:#27AAE1;stroke:none;" transform="matrix(1 0 0 1 339 1556)">
   <path d="M0.993654 0L3.63775 0L29.3281-67.1323L30.0303-67.1323L30.0303-70.459L28.1226-70.459ZM11.6885-24.4799L46.9815-24.4799L46.2315-26.7285L12.4385-26.7285ZM55.1196 0L57.7637 0L30.6382-70.459L29.4326-70.459L29.4326-67.1323Z"/>
  </g>
  <line id="Baseline-L" style="fill:none;stroke:#27AAE1;opacity:1;stroke-width:0.5;" x1="263" x2="3036" y1="1556" y2="1556"/>
  <line id="Capline-L" style="fill:none;stroke:#27AAE1;opacity:1;stroke-width:0.5;" x1="263" x2="3036" y1="1485.54" y2="1485.54"/>
  <line id="left-margin-Ultralight-S" style="fill:none;stroke:#00AEEF;stroke-width:0.5;opacity:1.0;" x1="505.702" x2="505.702" y1="600.785" y2="720.121"/>
  <line id="right-margin-Ultralight-S" style="fill:none;stroke:#00AEEF;stroke-width:0.5;opacity:1.0;" x1="613.72" x2="613.72" y1="600.785" y2="720.121"/>
  <line id="left-margin-Regular-S" style="fill:none;stroke:#00AEEF;stroke-width:0.5;opacity:1.0;" x1="1394.79" x2="1394.79" y1="600.785" y2="720.121"/>
  <line id="right-margin-Regular-S" style="fill:none;stroke:#00AEEF;stroke-width:0.5;opacity:1.0;" x1="1504.9" x2="1504.9" y1="600.785" y2="720.121"/>
  <line id="left-margin-Black-S" style="fill:none;stroke:#00AEEF;stroke-width:0.5;opacity:1.0;" x1="2877.35" x2="2877.35" y1="600.785" y2="720.121"/>
  <line id="right-margin-Black-S" style="fill:none;stroke:#00AEEF;stroke-width:0.5;opacity:1.0;" x1="2989.45" x2="2989.45" y1="600.785" y2="720.121"/>
 </g>
 <g id="Symbols">
  <g id="Black-S" transform="matrix(1 0 0 1 2877.35 696)">
   <path class="monochrome-0 multicolor-0:labelColor hierarchical-0:secondary SFSymbolsPreviewWireframe" d="M25 2.92969L87.1094 2.92969C96.6797 2.92969 102.344-2.73438 102.344-12.3047L102.344-58.1055C102.344-67.6758 96.6797-73.3398 87.1094-73.3398L25-73.3398C15.4297-73.3398 9.76562-67.6758 9.76562-58.1055L9.76562-12.3047C9.76562-2.73438 15.4297 2.92969 25 2.92969ZM27.2461-11.2305C25-11.2305 23.9258-12.1094 23.9258-14.5508L23.9258-55.8594C23.9258-58.3008 25-59.1797 27.2461-59.1797L84.8633-59.1797C87.1094-59.1797 88.1836-58.3008 88.1836-55.8594L88.1836-14.5508C88.1836-12.1094 87.1094-11.2305 84.8633-11.2305Z"/>
   <path class="monochrome-1 multicolor-1:labelColor hierarchical-1:primary SFSymbolsPreviewWireframe" d="M56.0405-49.8912C57.966-49.8912 59.5988-51.5226 59.5988-53.4481L59.5988-56.4899C59.5988-58.4184 57.966-60.0802 56.0405-60.0802C54.1134-60.0802 52.4806-58.4184 52.4806-56.4899L52.4806-53.4481C52.4806-51.5226 54.1134-49.8912 56.0405-49.8912ZM66.4682-45.4655C67.7845-44.1433 70.1378-44.1737 71.4845-45.5523L73.6204-47.7216C74.9441-49.0378 74.9152-51.3897 73.5336-52.7637C72.2174-54.089 69.864-54.0311 68.5159-52.677L66.3815-50.5137C65.0547-49.1974 65.0837-46.8426 66.4682-45.4655ZM70.7797-35.2417C70.7797-33.3132 72.4081-31.6848 74.3367-31.6848L77.3814-31.6848C79.3052-31.6848 80.9672-33.3132 80.9672-35.2417C80.9672-37.1702 79.3052-38.7986 77.3814-38.7986L74.3367-38.7986C72.4081-38.7986 70.7797-37.1702 70.7797-35.2417ZM66.3815-24.9037C65.0547-23.5844 65.0837-21.2585 66.4682-19.8845L68.6315-17.7501C69.9508-16.4248 72.3041-16.4523 73.6782-17.8353C75.0019-19.1516 74.973-21.5049 73.5915-22.8501L71.4281-24.9905C70.1089-26.3127 67.7555-26.2838 66.3815-24.9037ZM56.0405-20.5922C54.1134-20.5922 52.4806-18.9608 52.4806-17.0353L52.4806-13.9935C52.4806-12.065 54.1134-10.4032 56.0405-10.4032C57.966-10.4032 59.5988-12.065 59.5988-13.9935L59.5988-17.0353C59.5988-18.9608 57.966-20.5922 56.0405-20.5922ZM45.6979-24.9037C44.3239-26.2838 41.972-26.3127 40.6528-24.9905L38.4865-22.8486C37.1064-21.5034 37.0775-19.1501 38.4012-17.8338C39.7783-16.4508 42.1287-16.4233 43.4479-17.7486L45.6127-19.8845C46.9958-21.2585 47.0247-23.5844 45.6979-24.9037ZM41.3316-35.2417C41.3316-37.1702 39.6698-38.7986 37.7428-38.7986L34.698-38.7986C32.774-38.7986 31.1411-37.1702 31.1411-35.2417C31.1411-33.3132 32.774-31.6848 34.698-31.6848L37.7428-31.6848C39.6698-31.6848 41.3316-33.3132 41.3316-35.2417ZM45.6127-45.4655C46.9958-46.8441 47.0247-49.1959 45.6979-50.5137L43.562-52.677C42.2124-54.0326 39.8636-54.089 38.5428-52.7637C37.1627-51.3897 37.1338-49.0378 38.4575-47.7201L40.595-45.5523C41.9431-44.1722 44.2965-44.1433 45.6127-45.4655Z"/>
   <path class="monochrome-2 multicolor-2:labelColor hierarchical-2:primary SFSymbolsPreviewWireframe" d="M56.0465-23.2822C62.6118-23.2822 68.0074-28.6764 68.0074-35.2417C68.0074-41.807 62.6118-47.2012 56.0465-47.2012C49.4797-47.2012 44.087-41.807 44.087-35.2417C44.087-28.6764 49.4797-23.2822 56.0465-23.2822Z"/>
  </g>
  <g id="Regular-S" transform="matrix(1 0 0 1 1394.79 696)">
   <path class="monochrome-0 multicolor-0:labelColor hierarchical-0:secondary SFSymbolsPreviewWireframe" d="M22.2168 0.390625L87.8906 0.390625C96.2402 0.390625 100.342-3.71094 100.342-11.9141L100.342-58.4961C100.342-66.6992 96.2402-70.8008 87.8906-70.8008L22.2168-70.8008C13.916-70.8008 9.76562-66.6992 9.76562-58.4961L9.76562-11.9141C9.76562-3.71094 13.916 0.390625 22.2168 0.390625ZM22.3145-6.68945C18.7988-6.68945 16.7969-8.59375 16.7969-12.2559L16.7969-58.1543C16.7969-61.8652 18.7988-63.7207 22.3145-63.7207L87.793-63.7207C91.3086-63.7207 93.3105-61.8652 93.3105-58.1543L93.3105-12.2559C93.3105-8.59375 91.3086-6.68945 87.793-6.68945Z"/>
   <path class="monochrome-1 multicolor-1:labelColor hierarchical-1:primary SFSymbolsPreviewWireframe" d="M55.0546-48.981C56.4684-48.981 57.6595-50.186 57.6595-51.5998L57.6595-55.1559C57.6595-56.5712 56.4684-57.7745 55.0546-57.7745C53.6253-57.7745 52.4342-56.5712 52.4342-55.1559L52.4342-51.5998C52.4342-50.186 53.6253-48.981 55.0546-48.981ZM64.7738-44.8899C65.7588-43.9018 67.469-43.9 68.4815-44.9263L70.9962-47.4408C71.9704-48.4257 71.9583-50.1498 70.9598-51.159C69.9749-52.1487 68.2647-52.1245 67.266-51.1226L64.7374-48.5819C63.7616-47.597 63.7737-45.9007 64.7738-44.8899ZM68.8025-35.2417C68.8025-33.8263 70.0059-32.6229 71.4213-32.6229L74.9496-32.6229C76.3771-32.6229 77.5804-33.8263 77.5804-35.2417C77.5804-36.6571 76.3771-37.8605 74.9496-37.8605L71.4213-37.8605C70.0059-37.8605 68.8025-36.6571 68.8025-35.2417ZM64.7374-25.531C63.7616-24.5445 63.7737-22.8604 64.7738-21.8512L67.3146-19.3226C68.3011-18.3329 70.0113-18.3589 71.0205-19.3729C71.9947-20.3578 71.9825-22.0681 70.9841-23.0651L68.4433-25.5674C67.4568-26.5556 65.7466-26.5434 64.7374-25.531ZM55.0546-21.5024C53.6253-21.5024 52.4342-20.2974 52.4342-18.8836L52.4342-15.3275C52.4342-13.9121 53.6253-12.7089 55.0546-12.7089C56.4684-12.7089 57.6595-13.9121 57.6595-15.3275L57.6595-18.8836C57.6595-20.2974 56.4684-21.5024 55.0546-21.5024ZM45.3562-25.531C44.3471-26.5434 42.623-26.5556 41.6365-25.5674L39.1236-23.079C38.1112-22.082 38.0991-20.3717 39.0733-19.3868C40.084-18.3728 41.7927-18.3468 42.7792-19.3365L45.3059-21.8512C46.32-22.8604 46.3321-24.5445 45.3562-25.531ZM41.305-35.2417C41.305-36.6571 40.1017-37.8605 38.6724-37.8605L35.1442-37.8605C33.7165-37.8605 32.5254-36.6571 32.5254-35.2417C32.5254-33.8263 33.7165-32.6229 35.1442-32.6229L38.6724-32.6229C40.1017-32.6229 41.305-33.8263 41.305-35.2417ZM45.3059-44.8899C46.32-45.8868 46.3321-47.6109 45.3562-48.5819L42.8416-51.1226C41.8569-52.1106 40.1344-52.1487 39.1617-51.159C38.1494-50.1498 38.1372-48.4257 39.1114-47.4547L41.6122-44.9263C42.6109-43.9139 44.3211-43.9018 45.3059-44.8899Z"/>
   <path class="monochrome-2 multicolor-2:labelColor hierarchical-2:primary SFSymbolsPreviewWireframe" d="M55.0579-24.4248C60.9672-24.4248 65.8608-29.3029 65.8608-35.2417C65.8608-41.1805 60.9672-46.0586 55.0579-46.0586C49.133-46.0586 44.241-41.1805 44.241-35.2417C44.241-29.3029 49.133-24.4248 55.0579-24.4248Z"/>
  </g>
  <g id="Ultralight-S" transform="matrix(1 0 0 1 505.702 696)">
   <path class="monochrome-0 multicolor-0:labelColor hierarchical-0:secondary SFSymbolsPreviewWireframe" d="M19.7647-1.65282L88.2539-1.65282C94.7871-1.65282 98.2529-5.20946 98.2529-11.6416L98.2529-58.8594C98.2529-65.2915 94.7871-68.8482 88.2539-68.8482L19.7647-68.8482C13.2349-68.8482 9.76562-65.3823 9.76562-58.8594L9.76562-11.6416C9.76562-5.11864 13.2349-1.65282 19.7647-1.65282ZM19.8623-3.87405C14.6665-3.87405 11.9834-6.55031 11.9834-11.7564L11.9834-58.7446C11.9834-63.9541 14.6665-66.6269 19.8623-66.6269L88.1562-66.6269C93.1704-66.6269 96.0351-63.9541 96.0351-58.7446L96.0351-11.7564C96.0351-6.55031 93.1704-3.87405 88.1562-3.87405Z"/>
   <path class="monochrome-1 multicolor-1:labelColor hierarchical-1:primary SFSymbolsPreviewWireframe" d="M54.0067-49.014C54.6004-49.014 55.0519-49.4756 55.0519-50.0693L55.0519-54.6575C55.0519-55.2368 54.6004-55.6884 54.0067-55.6884C53.4174-55.6884 52.9658-55.2368 52.9658-54.6575L52.9658-50.0693C52.9658-49.4756 53.4174-49.014 54.0067-49.014ZM63.7245-44.9695C64.1547-44.5681 64.7998-44.5581 65.2257-44.9695L68.4794-48.1988C68.8708-48.629 68.8708-49.2842 68.4794-49.7144C68.0491-50.1014 67.4041-50.1014 66.9882-49.7144L63.7245-46.4506C63.3475-46.0204 63.3475-45.3853 63.7245-44.9695ZM67.759-35.2417C67.759-34.6624 68.2349-34.1864 68.8142-34.1864L73.3824-34.1864C73.9861-34.1864 74.4377-34.6624 74.4377-35.2417C74.4377-35.821 73.9861-36.297 73.3824-36.297L68.8142-36.297C68.2349-36.297 67.759-35.821 67.759-35.2417ZM63.7245-25.5039C63.3475-25.088 63.3475-24.453 63.7245-24.0227L66.9882-20.759C67.4041-20.3719 68.0491-20.382 68.4794-20.769C68.8708-21.1992 68.8708-21.8443 68.4794-22.2746L65.2156-25.5039C64.7998-25.9053 64.1547-25.9053 63.7245-25.5039ZM54.0067-21.4694C53.4174-21.4694 52.9658-21.0078 52.9658-20.4141L52.9658-15.8259C52.9658-15.2466 53.4174-14.795 54.0067-14.795C54.6004-14.795 55.0519-15.2466 55.0519-15.8259L55.0519-20.4141C55.0519-21.0078 54.6004-21.4694 54.0067-21.4694ZM44.2933-25.5039C43.863-25.9053 43.2079-25.9053 42.7921-25.5039L39.5484-22.2846C39.147-21.8544 39.147-21.2093 39.5384-20.779C39.9542-20.392 40.6137-20.382 41.0295-20.769L44.2833-24.0227C44.6703-24.453 44.6703-25.088 44.2933-25.5039ZM40.2444-35.2417C40.2444-35.821 39.7928-36.297 39.2035-36.297L34.6353-36.297C34.0316-36.297 33.5801-35.821 33.5801-35.2417C33.5801-34.6624 34.0316-34.1864 34.6353-34.1864L39.2035-34.1864C39.7928-34.1864 40.2444-34.6624 40.2444-35.2417ZM44.2833-44.9695C44.6703-45.3753 44.6703-46.0304 44.2933-46.4506L41.0395-49.7144C40.6337-50.0914 39.9643-50.1014 39.5584-49.7144C39.157-49.2842 39.157-48.629 39.5484-48.2088L42.7921-44.9695C43.2079-44.5681 43.853-44.5681 44.2833-44.9695Z"/>
   <path class="monochrome-2 multicolor-2:labelColor hierarchical-2:primary SFSymbolsPreviewWireframe" d="M53.9779-25.9859C59.0381-25.9859 63.2237-30.1759 63.2237-35.2417C63.2237-40.3075 59.0381-44.4975 53.9779-44.4975C48.9221-44.4975 44.7221-40.3075 44.7221-35.2417C44.7221-30.1759 48.9221-25.9859 53.9779-25.9859Z"/>
  </g>
 </g>
</svg>
